<svg data-cover="arms:covered" xmlns="http://www.w3.org/2000/svg" viewBox="54.77 52.21 438.30 438.30"><metadata id="sah">{"v":1,"fig":[["h1","fa"]]}</metadata>
<line x1="120" y1="452" x2="392" y2="452" stroke="#9aa7b5" stroke-width="5" stroke-linecap="round"/>
<line x1="249" y1="303" x2="336" y2="455" stroke="#39425c" stroke-width="16.0" stroke-linecap="round"/>
<line x1="279" y1="303" x2="220" y2="415" stroke="#39425c" stroke-width="16.0" stroke-linecap="round"/>
<ellipse cx="336" cy="457" rx="13" ry="7" fill="#33373d"/>
<ellipse cx="220" cy="417" rx="13" ry="7" fill="#33373d"/>
<polygon points="240,197 304,197 294,305 234,305" fill="#cc5544" stroke="#1a1a1a" stroke-width="5" stroke-linejoin="round"/>
<line x1="242" y1="199" x2="232" y2="255" stroke="#1a1a1a" stroke-width="13.0" stroke-linecap="round"/>
<line x1="302" y1="199" x2="334" y2="250" stroke="#1a1a1a" stroke-width="13.0" stroke-linecap="round"/>
<line x1="272" y1="197" x2="272" y2="166" stroke="#1a1a1a" stroke-width="13.0" stroke-linecap="round"/>
<path d="M 225.0 184.0 L 225.0 128.0 Q 225.0 76.0 272.0 76.0 Q 319.0 76.0 319.0 128.0 L 319.0 184.0 L 306.0 184.0 L 306.0 130.0 Q 306.0 96.0 272.0 96.0 Q 238.0 96.0 238.0 130.0 L 238.0 184.0 Z" fill="#5a3a1f" stroke="#1a1a1a" stroke-width="3"/>
<path d="M 238.0 197 L 306.0 197 L 304.0 335 L 240.0 335 Z" fill="#c0392b" stroke="#1a1a1a" stroke-width="4"/>
<path d="M 240.0 197 L 304.0 197 L 302.0 305 L 242.0 305 Z" fill="#c0392b" stroke="#1a1a1a" stroke-width="4" stroke-linejoin="round"/>
<circle cx="272" cy="215" r="3" fill="#f2c14e" stroke="#1a1a1a" stroke-width="0"/>
<circle cx="260" cy="223" r="3" fill="#f2c14e" stroke="#1a1a1a" stroke-width="0"/>
<circle cx="284" cy="223" r="3" fill="#f2c14e" stroke="#1a1a1a" stroke-width="0"/>
<path d="M 256.0 199 L 272.0 219 L 288.0 199" fill="none" stroke="#f2c14e" stroke-width="5" stroke-linejoin="round"/>
<line x1="222" y1="349" x2="322" y2="349" stroke="#f2c14e" stroke-width="3" stroke-linecap="round"/>
<rect x="240" y="303" width="64" height="12" rx="0" fill="#e3b23c" stroke="#1a1a1a" stroke-width="3"/>
<line x1="242" y1="199" x2="232" y2="255" stroke="#ffffff" stroke-width="20" stroke-linecap="round"/>
<line x1="242" y1="199" x2="232" y2="255" stroke="#1a1a1a" stroke-width="13.0" stroke-linecap="round"/>
<line x1="302" y1="199" x2="334" y2="250" stroke="#ffffff" stroke-width="20" stroke-linecap="round"/>
<line x1="302" y1="199" x2="334" y2="250" stroke="#1a1a1a" stroke-width="13.0" stroke-linecap="round"/>
<path d="M 225.0 184.0 L 225.0 128.0 Q 225.0 76.0 272.0 76.0 Q 319.0 76.0 319.0 128.0 L 319.0 184.0 L 306.0 184.0 L 306.0 130.0 Q 306.0 96.0 272.0 96.0 Q 238.0 96.0 238.0 130.0 L 238.0 184.0 Z" fill="#241c14" stroke="#1a1a1a" stroke-width="3"/>
<circle id="h1" data-fig="fa" class="skin" cx="272" cy="130" r="40" fill="#a86a43" stroke="#1a1a1a" stroke-width="6"/>
<path d="M 234.0 96.0 Q 272.0 82.0 310.0 96.0 Q 272.0 92.0 234.0 96.0 Z" fill="#241c14" stroke="#1a1a1a" stroke-width="3"/>
<ellipse cx="272" cy="94" rx="58" ry="12" fill="#1a1a1a" stroke="#1a1a1a" stroke-width="4"/>
<path d="M 246.0 94 Q 246.0 64 272.0 64 Q 298.0 64 298.0 94 Z" fill="#2b2b2b" stroke="#1a1a1a" stroke-width="4" stroke-linejoin="round"/>
<path d="M 242.0 237.0 L 294.0 237.0 L 294.0 281.0 L 242.0 281.0 Z" fill="#ffffff" stroke="#1a1a1a" stroke-width="3" stroke-linejoin="round"/>
<line x1="248" y1="244" x2="266" y2="244" stroke="#1a1a1a" stroke-width="5" stroke-linecap="round"/>
<line x1="266" y1="244" x2="266" y2="259" stroke="#1a1a1a" stroke-width="5" stroke-linecap="round"/>
<line x1="248" y1="259" x2="266" y2="259" stroke="#1a1a1a" stroke-width="5" stroke-linecap="round"/>
<line x1="248" y1="259" x2="248" y2="274" stroke="#1a1a1a" stroke-width="5" stroke-linecap="round"/>
<line x1="248" y1="274" x2="266" y2="274" stroke="#1a1a1a" stroke-width="5" stroke-linecap="round"/>
<line x1="270" y1="244" x2="288" y2="244" stroke="#1a1a1a" stroke-width="5" stroke-linecap="round"/>
<line x1="270" y1="244" x2="270" y2="259" stroke="#1a1a1a" stroke-width="5" stroke-linecap="round"/>
<line x1="270" y1="259" x2="288" y2="259" stroke="#1a1a1a" stroke-width="5" stroke-linecap="round"/>
<line x1="270" y1="259" x2="270" y2="274" stroke="#1a1a1a" stroke-width="5" stroke-linecap="round"/>
<line x1="270" y1="274" x2="288" y2="274" stroke="#1a1a1a" stroke-width="5" stroke-linecap="round"/>
<line x1="288" y1="259" x2="288" y2="274" stroke="#1a1a1a" stroke-width="5" stroke-linecap="round"/>
<line x1="408" y1="452" x2="408" y2="372" stroke="#9a6a3a" stroke-width="8" stroke-linecap="round"/>
<path d="M 386 360 L 430 360 L 430 392 L 386 392 Z" fill="#3fae5a" stroke="#1a1a1a" stroke-width="3" stroke-linejoin="round"/>
<line x1="393" y1="366" x2="393" y2="376" stroke="#ffffff" stroke-width="4" stroke-linecap="round"/>
<line x1="393" y1="376" x2="405" y2="376" stroke="#ffffff" stroke-width="4" stroke-linecap="round"/>
<line x1="405" y1="366" x2="405" y2="376" stroke="#ffffff" stroke-width="4" stroke-linecap="round"/>
<line x1="405" y1="376" x2="405" y2="386" stroke="#ffffff" stroke-width="4" stroke-linecap="round"/>
<line x1="411" y1="366" x2="423" y2="366" stroke="#ffffff" stroke-width="4" stroke-linecap="round"/>
<line x1="423" y1="366" x2="423" y2="376" stroke="#ffffff" stroke-width="4" stroke-linecap="round"/>
<line x1="411" y1="376" x2="423" y2="376" stroke="#ffffff" stroke-width="4" stroke-linecap="round"/>
<line x1="411" y1="376" x2="411" y2="386" stroke="#ffffff" stroke-width="4" stroke-linecap="round"/>
<line x1="411" y1="386" x2="423" y2="386" stroke="#ffffff" stroke-width="4" stroke-linecap="round"/>
</svg>
