<svg data-cover="arms:covered" xmlns="http://www.w3.org/2000/svg" viewBox="35.65 46.74 444.12 444.12"><metadata id="sah">{"v":1,"fig":[["h1","fa"]]}</metadata>
<path d="M 140.0 197.0 L 200.0 197.0 L 200.0 339.0 L 226.0 389.0 L 114.0 389.0 L 140.0 339.0 Z" fill="#d6529e" stroke="#1a1a1a" stroke-width="5" stroke-linejoin="round"/>
<line x1="152" y1="389" x2="142" y2="455" stroke="#1a1a1a" stroke-width="13.0" stroke-linecap="round"/>
<line x1="142" y1="455" x2="116" y2="455" stroke="#1a1a1a" stroke-width="13.0" stroke-linecap="round"/>
<line x1="188" y1="389" x2="202" y2="379" stroke="#1a1a1a" stroke-width="13.0" stroke-linecap="round"/>
<line x1="202" y1="379" x2="202" y2="455" stroke="#1a1a1a" stroke-width="13.0" stroke-linecap="round"/>
<ellipse cx="116" cy="457" rx="13" ry="7" fill="#33373d"/>
<ellipse cx="202" cy="457" rx="13" ry="7" fill="#33373d"/>
<line x1="140" y1="199" x2="140" y2="305" stroke="#1a1a1a" stroke-width="13.0" stroke-linecap="round"/>

<line x1="170" y1="197" x2="170" y2="166" stroke="#1a1a1a" stroke-width="13.0" stroke-linecap="round"/>
<path d="M 123.0 184.0 L 123.0 128.0 Q 123.0 76.0 170 76.0 Q 217.0 76.0 217.0 128.0 L 217.0 184.0 L 204.0 184.0 L 204.0 130.0 Q 204.0 96.0 170 96.0 Q 136.0 96.0 136.0 130.0 L 136.0 184.0 Z" fill="#5a3a1f" stroke="#1a1a1a" stroke-width="3" stroke-linejoin="round"/>
<path d="M 136.0 197 L 204.0 197 L 202.0 335 L 138.0 335 Z" fill="#c0392b" stroke="#1a1a1a" stroke-width="4"/>
<path d="M 138.0 197 L 202.0 197 L 200.0 305 L 140.0 305 Z" fill="#c0392b" stroke="#1a1a1a" stroke-width="4" stroke-linejoin="round"/>
<circle cx="170" cy="215" r="3" fill="#f2c14e" stroke="#1a1a1a" stroke-width="0"/>
<circle cx="158" cy="223" r="3" fill="#f2c14e" stroke="#1a1a1a" stroke-width="0"/>
<circle cx="182" cy="223" r="3" fill="#f2c14e" stroke="#1a1a1a" stroke-width="0"/>
<path d="M 154.0 199 L 170.0 219 L 186.0 199" fill="none" stroke="#f2c14e" stroke-width="5" stroke-linejoin="round"/>
<line x1="120" y1="349" x2="220" y2="349" stroke="#f2c14e" stroke-width="3" stroke-linecap="round"/>
<rect x="138" y="303" width="64" height="12" rx="0" fill="#e3b23c" stroke="#1a1a1a" stroke-width="3"/>
<line x1="140" y1="199" x2="140" y2="305" stroke="#ffffff" stroke-width="20" stroke-linecap="round"/>
<line x1="140" y1="199" x2="140" y2="305" stroke="#1a1a1a" stroke-width="13.0" stroke-linecap="round"/>
<line x1="200" y1="199" x2="296" y2="329" stroke="#ffffff" stroke-width="21" stroke-linecap="round"/>
<line x1="200" y1="199" x2="296" y2="329" stroke="#1a1a1a" stroke-width="14" stroke-linecap="round"/>
<path d="M 123.0 184.0 L 123.0 128.0 Q 123.0 76.0 170.0 76.0 Q 217.0 76.0 217.0 128.0 L 217.0 184.0 L 204.0 184.0 L 204.0 130.0 Q 204.0 96.0 170.0 96.0 Q 136.0 96.0 136.0 130.0 L 136.0 184.0 Z" fill="#241c14" stroke="#1a1a1a" stroke-width="3"/>
<circle id="h1" data-fig="fa" class="skin" cx="170" cy="130" r="40" fill="#a86a43" stroke="#1a1a1a" stroke-width="6"/>
<path d="M 132.0 96.0 Q 170.0 82.0 208.0 96.0 Q 170.0 92.0 132.0 96.0 Z" fill="#241c14" stroke="#1a1a1a" stroke-width="3"/>
<ellipse cx="170" cy="94" rx="58" ry="12" fill="#1a1a1a" stroke="#1a1a1a" stroke-width="4"/>
<path d="M 144.0 94 Q 144.0 64 170.0 64 Q 196.0 64 196.0 94 Z" fill="#2b2b2b" stroke="#1a1a1a" stroke-width="4" stroke-linejoin="round"/>
<path d="M 252 305 Q 238 379 330 383 Q 422 379 408 305 Z" fill="#9fd3ef" stroke="#1a1a1a" stroke-width="5" stroke-linejoin="round"/>
<path d="M 252 305 Q 330 323 408 305" fill="none" stroke="#5aa6cf" stroke-width="4" stroke-linejoin="round"/>
<circle cx="330" cy="317" r="18" fill="#a86a43" stroke="#1a1a1a" stroke-width="4"/>
<circle cx="324" cy="314" r="2" fill="#1a1a1a" stroke="#1a1a1a" stroke-width="0"/>
<circle cx="336" cy="314" r="2" fill="#1a1a1a" stroke="#1a1a1a" stroke-width="0"/>
<circle cx="290" cy="329" r="6" fill="#ffffff" stroke="#7ec8f0" stroke-width="2"/>
<circle cx="374" cy="335" r="6" fill="#ffffff" stroke="#7ec8f0" stroke-width="2"/>
<circle cx="310" cy="345" r="6" fill="#ffffff" stroke="#7ec8f0" stroke-width="2"/>
<circle cx="348" cy="323" r="6" fill="#ffffff" stroke="#7ec8f0" stroke-width="2"/>
<line x1="200" y1="199" x2="296" y2="329" stroke="#1a1a1a" stroke-width="14" stroke-linecap="round"/>
<circle cx="296" cy="329" r="10" fill="#a86a43" stroke="#1a1a1a" stroke-width="3"/>
<path d="M 256 115 C 241 102 241 117 256 125 C 271 117 271 102 256 115 Z" fill="#e0473c" stroke="#1a1a1a" stroke-width="3" stroke-linejoin="round"/>
</svg>
