<svg data-cover="arms:covered" xmlns="http://www.w3.org/2000/svg" viewBox="45.03 46.74 444.12 444.12"><metadata id="sah">{"v":1,"fig":[["h1","fa"],["h2","ma"]]}</metadata>
<path d="M 166.0 197.0 L 226.0 197.0 L 226.0 287.0 L 252.0 389.0 L 140.0 389.0 L 166.0 287.0 Z" fill="#d6529e" stroke="#1a1a1a" stroke-width="5" stroke-linejoin="round"/>
<line x1="178" y1="389" x2="172" y2="455" stroke="#1a1a1a" stroke-width="13.0" stroke-linecap="round"/>
<line x1="214" y1="389" x2="220" y2="455" stroke="#1a1a1a" stroke-width="13.0" stroke-linecap="round"/>
<ellipse cx="172" cy="457" rx="13" ry="7" fill="#33373d"/>
<ellipse cx="220" cy="457" rx="13" ry="7" fill="#33373d"/>
<line x1="166" y1="199" x2="146" y2="305" stroke="#1a1a1a" stroke-width="13.0" stroke-linecap="round"/>

<line x1="196" y1="197" x2="196" y2="166" stroke="#1a1a1a" stroke-width="13.0" stroke-linecap="round"/>
<path d="M 149.0 184.0 L 149.0 128.0 Q 149.0 76.0 196 76.0 Q 243.0 76.0 243.0 128.0 L 243.0 184.0 L 230.0 184.0 L 230.0 130.0 Q 230.0 96.0 196 96.0 Q 162.0 96.0 162.0 130.0 L 162.0 184.0 Z" fill="#5a3a1f" stroke="#1a1a1a" stroke-width="3" stroke-linejoin="round"/>
<path d="M 164.0 197 L 228.0 197 L 226.0 305 L 166.0 305 Z" fill="#c0392b" stroke="#1a1a1a" stroke-width="4" stroke-linejoin="round"/>
<circle cx="196" cy="215" r="3" fill="#f2c14e" stroke="#1a1a1a" stroke-width="0"/>
<circle cx="184" cy="223" r="3" fill="#f2c14e" stroke="#1a1a1a" stroke-width="0"/>
<circle cx="208" cy="223" r="3" fill="#f2c14e" stroke="#1a1a1a" stroke-width="0"/>
<path d="M 180.0 199 L 196.0 219 L 212.0 199" fill="none" stroke="#f2c14e" stroke-width="5" stroke-linejoin="round"/>
<path d="M 166.0 305 L 226.0 305 L 246.0 367 L 146.0 367 Z" fill="#1f8f4e" stroke="#1a1a1a" stroke-width="4" stroke-linejoin="round"/>
<path d="M 148.0 363 L 244.0 363 L 250.0 455 L 142.0 455 Z" fill="#7d2b6b" stroke="#1a1a1a" stroke-width="4" stroke-linejoin="round"/>
<line x1="146" y1="349" x2="246" y2="349" stroke="#f2c14e" stroke-width="3" stroke-linecap="round"/>
<line x1="142" y1="441" x2="250" y2="441" stroke="#f2c14e" stroke-width="3" stroke-linecap="round"/>
<rect x="164" y="303" width="64" height="12" rx="0" fill="#e3b23c" stroke="#1a1a1a" stroke-width="3"/>
<line x1="166" y1="199" x2="146" y2="305" stroke="#ffffff" stroke-width="20" stroke-linecap="round"/>
<line x1="166" y1="199" x2="146" y2="305" stroke="#1a1a1a" stroke-width="13.0" stroke-linecap="round"/>
<line x1="226" y1="199" x2="310" y2="205" stroke="#ffffff" stroke-width="21" stroke-linecap="round"/>
<line x1="226" y1="199" x2="310" y2="205" stroke="#1a1a1a" stroke-width="14" stroke-linecap="round"/>
<path d="M 149.0 184.0 L 149.0 128.0 Q 149.0 76.0 196.0 76.0 Q 243.0 76.0 243.0 128.0 L 243.0 184.0 L 230.0 184.0 L 230.0 130.0 Q 230.0 96.0 196.0 96.0 Q 162.0 96.0 162.0 130.0 L 162.0 184.0 Z" fill="#241c14" stroke="#1a1a1a" stroke-width="3"/>
<circle id="h1" data-fig="fa" class="skin" cx="196" cy="130" r="40" fill="#a86a43" stroke="#1a1a1a" stroke-width="6"/>
<path d="M 158.0 96.0 Q 196.0 82.0 234.0 96.0 Q 196.0 92.0 158.0 96.0 Z" fill="#241c14" stroke="#1a1a1a" stroke-width="3"/>
<ellipse cx="196" cy="94" rx="58" ry="12" fill="#1a1a1a" stroke="#1a1a1a" stroke-width="4"/>
<path d="M 170.0 94 Q 170.0 64 196.0 64 Q 222.0 64 222.0 94 Z" fill="#2b2b2b" stroke="#1a1a1a" stroke-width="4" stroke-linejoin="round"/>
<line x1="323" y1="303" x2="314" y2="455" stroke="#39425c" stroke-width="16.0" stroke-linecap="round"/>
<line x1="353" y1="303" x2="362" y2="455" stroke="#39425c" stroke-width="16.0" stroke-linecap="round"/>
<ellipse cx="314" cy="457" rx="13" ry="7" fill="#33373d"/>
<ellipse cx="362" cy="457" rx="13" ry="7" fill="#33373d"/>
<polygon points="306,207 370,207 368,305 308,305" fill="#4a90d9" stroke="#1a1a1a" stroke-width="5" stroke-linejoin="round"/>
<line x1="308" y1="209" x2="316" y2="313" stroke="#1a1a1a" stroke-width="13.0" stroke-linecap="round"/>
<line x1="368" y1="209" x2="362" y2="313" stroke="#1a1a1a" stroke-width="13.0" stroke-linecap="round"/>
<line x1="338" y1="207" x2="354" y2="195" stroke="#1a1a1a" stroke-width="13.0" stroke-linecap="round"/>
<circle id="h2" data-fig="ma" class="skin" cx="354" cy="159" r="40" fill="#a86a43" stroke="#1a1a1a" stroke-width="6"/>
<path d="M 314.0 159.0 Q 314.0 109.0 354.0 109.0 Q 394.0 109.0 394.0 159.0 Q 354.0 132.0 314.0 159.0 Z" fill="#241c14" stroke="#1a1a1a" stroke-width="3" stroke-linejoin="round"/>
<circle cx="341" cy="156" r="4" fill="#1a1a1a" stroke="#1a1a1a" stroke-width="0"/>
<circle cx="367" cy="156" r="4" fill="#1a1a1a" stroke="#1a1a1a" stroke-width="0"/>
<path d="M 340.0 181.0 Q 354.0 167.0 368.0 181.0" fill="none" stroke="#1a1a1a" stroke-width="4" stroke-linejoin="round"/>
<line x1="226" y1="199" x2="310" y2="205" stroke="#1a1a1a" stroke-width="14" stroke-linecap="round"/>
<circle cx="310" cy="205" r="11" fill="#a86a43" stroke="#1a1a1a" stroke-width="3"/>
<path d="M 256 136 C 236 119 236 139 256 150 C 276 139 276 119 256 136 Z" fill="#e0473c" stroke="#1a1a1a" stroke-width="3" stroke-linejoin="round"/>
<g transform="translate(377 115) scale(1.450) translate(-377 -115)"><path d="M 386.8 129.0 L 386.8 112.0 L 391.0 112.0 L 384.0 101.0 L 377.0 112.0 L 381.2 112.0 L 381.2 129.0 Z" fill="#2f9e4a" stroke="#1a1a1a" stroke-width="2" stroke-linejoin="round" stroke-linecap="round"/></g>
</svg>
