<svg data-cover="arms:covered" xmlns="http://www.w3.org/2000/svg" viewBox="0 0 512 512" data-copyright="© 2026 Sensory App House"><!--SAH-COPYRIGHT © 2026 Sensory App House. All rights reserved.--><metadata id="sah-copyright"><rdf:RDF xmlns:rdf="http://www.w3.org/1999/02/22-rdf-syntax-ns#" xmlns:dc="http://purl.org/dc/elements/1.1/" xmlns:cc="http://creativecommons.org/ns#"><cc:Work rdf:about=""><dc:rights><cc:Agent><dc:title>© 2026 Sensory App House. All rights reserved.</dc:title></cc:Agent></dc:rights><dc:creator><cc:Agent><dc:title>Sensory App House (PiCom)</dc:title></cc:Agent></dc:creator><dc:date>2026</dc:date></cc:Work></rdf:RDF></metadata><metadata id="sah">{"v":1,"fig":[["h1","ma"]]}</metadata><g data-fit="1" transform="translate(256 256) scale(0.9426) translate(-256.00 -253.00)">
<rect x="20.0" y="420.0" width="472.0" height="40.0" rx="8" fill="#5a6470" stroke="#1a1a1a" stroke-width="6"/>
<rect x="20.0" y="420.0" width="472.0" height="12.0" rx="0" fill="#454e58" stroke="#1a1a1a" stroke-width="0"/>
<rect x="196.0" y="250.0" width="296.0" height="150.0" rx="18" fill="#d6473c" stroke="#1a1a1a" stroke-width="6"/>
<rect x="196.0" y="370.0" width="296.0" height="30.0" rx="0" fill="#a8362c" stroke="#1a1a1a" stroke-width="0"/>
<rect x="210.0" y="274.0" width="268.0" height="56.0" rx="8" fill="#bfe2f2" stroke="#1a1a1a" stroke-width="4"/>
<line x1="264" y1="274" x2="264" y2="330" stroke="#d6473c" stroke-width="4" stroke-linecap="round"/>
<line x1="317" y1="274" x2="317" y2="330" stroke="#d6473c" stroke-width="4" stroke-linecap="round"/>
<line x1="371" y1="274" x2="371" y2="330" stroke="#d6473c" stroke-width="4" stroke-linecap="round"/>
<line x1="424" y1="274" x2="424" y2="330" stroke="#d6473c" stroke-width="4" stroke-linecap="round"/>
<rect x="208.0" y="258.0" width="64.0" height="14.0" rx="3" fill="#1a1a1a" stroke="#1a1a1a" stroke-width="2"/>
<rect x="212.0" y="260.0" width="56.0" height="10.0" rx="0" fill="#f6c500" stroke="#1a1a1a" stroke-width="0"/>
<rect x="212.0" y="274.0" width="46.0" height="96.0" rx="6" fill="#cfe9f5" stroke="#1a1a1a" stroke-width="4"/>
<line x1="235" y1="274" x2="235" y2="370" stroke="#d6473c" stroke-width="3" stroke-linecap="round"/>
<circle cx="260" cy="400" r="26" fill="#22262c" stroke="#1a1a1a" stroke-width="5"/>
<circle cx="260" cy="400" r="10" fill="#9aa7b3" stroke="#1a1a1a" stroke-width="0"/>
<circle cx="428" cy="400" r="26" fill="#22262c" stroke="#1a1a1a" stroke-width="5"/>
<circle cx="428" cy="400" r="10" fill="#9aa7b3" stroke="#1a1a1a" stroke-width="0"/>
<line x1="135" y1="268" x2="180" y2="420" stroke="#39425c" stroke-width="16.0" stroke-linecap="round"/>
<line x1="165" y1="268" x2="124" y2="420" stroke="#39425c" stroke-width="16.0" stroke-linecap="round"/>
<ellipse cx="180" cy="422" rx="13" ry="7" fill="#33373d"/>
<ellipse cx="124" cy="422" rx="13" ry="7" fill="#33373d"/>
<polygon points="118,162 182,162 180,270 120,270" fill="#2f9e4a" stroke="#1a1a1a" stroke-width="5" stroke-linejoin="round"/>
<line x1="120" y1="164" x2="106" y2="270" stroke="#1a1a1a" stroke-width="13.0" stroke-linecap="round"/>
<line x1="180" y1="164" x2="200" y2="252" stroke="#1a1a1a" stroke-width="13.0" stroke-linecap="round"/>
<line x1="150" y1="162" x2="150" y2="131" stroke="#1a1a1a" stroke-width="13.0" stroke-linecap="round"/>
<g transform="translate(0,-35)"><path d="M 116.0 197 L 184.0 197 L 182.0 335 L 118.0 335 Z" fill="#6b5a3a" stroke="#1a1a1a" stroke-width="4"/>
<line x1="118" y1="221" x2="182" y2="221" stroke="#1a1a1a" stroke-width="5" stroke-linecap="round"/>
<line x1="115" y1="241" x2="185" y2="241" stroke="#1a1a1a" stroke-width="5" stroke-linecap="round"/>
<line x1="112" y1="261" x2="188" y2="261" stroke="#1a1a1a" stroke-width="5" stroke-linecap="round"/>
<line x1="107" y1="303" x2="193" y2="303" stroke="#1a1a1a" stroke-width="5" stroke-linecap="round"/>
<line x1="105" y1="323" x2="195" y2="323" stroke="#1a1a1a" stroke-width="5" stroke-linecap="round"/>
<line x1="116" y1="231" x2="184" y2="231" stroke="#f2c14e" stroke-width="5" stroke-linecap="round"/>
<line x1="114" y1="251" x2="186" y2="251" stroke="#f2c14e" stroke-width="5" stroke-linecap="round"/>
<line x1="108" y1="293" x2="192" y2="293" stroke="#f2c14e" stroke-width="5" stroke-linecap="round"/>
<line x1="106" y1="313" x2="194" y2="313" stroke="#f2c14e" stroke-width="5" stroke-linecap="round"/>
<path d="M 140.0 201 L 160.0 201 L 158.0 221 L 142.0 221 Z" fill="#a86a43" stroke="#1a1a1a" stroke-width="3" stroke-linejoin="round"/></g>
<line x1="120" y1="164" x2="106" y2="270" stroke="#ffffff" stroke-width="20" stroke-linecap="round"/>
<line x1="120" y1="164" x2="106" y2="270" stroke="#1a1a1a" stroke-width="13.0" stroke-linecap="round"/>
<line x1="180" y1="164" x2="200" y2="252" stroke="#ffffff" stroke-width="20" stroke-linecap="round"/>
<line x1="180" y1="164" x2="200" y2="252" stroke="#1a1a1a" stroke-width="13.0" stroke-linecap="round"/>
<circle id="h1" data-fig="ma" class="skin" cx="150" cy="95" r="40" fill="#a86a43" stroke="#1a1a1a" stroke-width="6"/>
<path d="M 110.0 95.0 Q 110.0 45.0 150 45.0 Q 190.0 45.0 190.0 95.0 Q 150 68.0 110.0 95.0 Z" fill="#241c14" stroke="#1a1a1a" stroke-width="3" stroke-linejoin="round"/>
<g transform="translate(0,-35)"><path d="M 108.0 126 Q 108.0 72 150.0 72 Q 192.0 72 192.0 126 Q 150.0 100 108.0 126 Z" fill="#7d2b6b" stroke="#1a1a1a" stroke-width="4" stroke-linejoin="round"/>
<line x1="107" y1="88" x2="107" y2="78" stroke="#f2c14e" stroke-width="2" stroke-linecap="round"/>
<line x1="150" y1="72" x2="150" y2="64" stroke="#f2c14e" stroke-width="2" stroke-linecap="round"/>
<line x1="112" y1="92" x2="188" y2="92" stroke="#f2c14e" stroke-width="5" stroke-linecap="round"/>
<line x1="112" y1="118" x2="188" y2="118" stroke="#f2c14e" stroke-width="5" stroke-linecap="round"/>
<path d="M 109.0 126 L 109.0 172 L 123.0 172 L 123.0 126 Z" fill="#7d2b6b" stroke="#1a1a1a" stroke-width="3" stroke-linejoin="round"/>
<path d="M 191.0 126 L 191.0 172 L 177.0 172 L 177.0 126 Z" fill="#7d2b6b" stroke="#1a1a1a" stroke-width="3" stroke-linejoin="round"/>
<line x1="116" y1="172" x2="116" y2="180" stroke="#f2c14e" stroke-width="3" stroke-linecap="round"/>
<line x1="184" y1="172" x2="184" y2="180" stroke="#f2c14e" stroke-width="3" stroke-linecap="round"/></g>
<line x1="196" y1="360" x2="252" y2="320" stroke="#1a1a1a" stroke-width="20.0" stroke-linecap="round"/><line x1="252" y1="320" x2="240" y2="345" stroke="#1a1a1a" stroke-width="20.0" stroke-linecap="round"/><line x1="252" y1="320" x2="224" y2="323" stroke="#1a1a1a" stroke-width="20.0" stroke-linecap="round"/><line x1="196" y1="360" x2="252" y2="320" stroke="#2f9e4a" stroke-width="14.5" stroke-linecap="round"/>
<line x1="252" y1="320" x2="240" y2="345" stroke="#2f9e4a" stroke-width="14.5" stroke-linecap="round"/>
<line x1="252" y1="320" x2="224" y2="323" stroke="#2f9e4a" stroke-width="14.5" stroke-linecap="round"/>
</g></svg>
