<svg data-cover="arms:covered" xmlns="http://www.w3.org/2000/svg" viewBox="46.24 52.21 438.30 438.30"><metadata id="sah">{"v":1,"fig":[["h1","fa"]]}</metadata>
<line x1="233" y1="303" x2="278" y2="455" stroke="#39425c" stroke-width="16.0" stroke-linecap="round"/>
<line x1="263" y1="303" x2="222" y2="455" stroke="#39425c" stroke-width="16.0" stroke-linecap="round"/>
<ellipse cx="278" cy="457" rx="13" ry="7" fill="#33373d"/>
<ellipse cx="222" cy="457" rx="13" ry="7" fill="#33373d"/>
<polygon points="216,197 280,197 278,305 218,305" fill="#3f6fb0" stroke="#1a1a1a" stroke-width="5" stroke-linejoin="round"/>
<line x1="218" y1="199" x2="204" y2="305" stroke="#1a1a1a" stroke-width="13.0" stroke-linecap="round"/>
<line x1="278" y1="199" x2="298" y2="287" stroke="#1a1a1a" stroke-width="13.0" stroke-linecap="round"/>
<line x1="248" y1="197" x2="248" y2="166" stroke="#1a1a1a" stroke-width="13.0" stroke-linecap="round"/>
<path d="M 201.0 184.0 L 201.0 128.0 Q 201.0 76.0 248.0 76.0 Q 295.0 76.0 295.0 128.0 L 295.0 184.0 L 282.0 184.0 L 282.0 130.0 Q 282.0 96.0 248.0 96.0 Q 214.0 96.0 214.0 130.0 L 214.0 184.0 Z" fill="#5a3a1f" stroke="#1a1a1a" stroke-width="3"/>
<path d="M 216.0 197 L 280.0 197 L 278.0 305 L 218.0 305 Z" fill="#c0392b" stroke="#1a1a1a" stroke-width="4" stroke-linejoin="round"/>
<circle cx="248" cy="215" r="3" fill="#f2c14e" stroke="#1a1a1a" stroke-width="0"/>
<circle cx="236" cy="223" r="3" fill="#f2c14e" stroke="#1a1a1a" stroke-width="0"/>
<circle cx="260" cy="223" r="3" fill="#f2c14e" stroke="#1a1a1a" stroke-width="0"/>
<path d="M 232.0 199 L 248.0 219 L 264.0 199" fill="none" stroke="#f2c14e" stroke-width="5" stroke-linejoin="round"/>
<path d="M 218.0 305 L 278.0 305 L 298.0 367 L 198.0 367 Z" fill="#1f8f4e" stroke="#1a1a1a" stroke-width="4" stroke-linejoin="round"/>
<path d="M 200.0 363 L 296.0 363 L 302.0 455 L 194.0 455 Z" fill="#7d2b6b" stroke="#1a1a1a" stroke-width="4" stroke-linejoin="round"/>
<line x1="198" y1="349" x2="298" y2="349" stroke="#f2c14e" stroke-width="3" stroke-linecap="round"/>
<line x1="194" y1="441" x2="302" y2="441" stroke="#f2c14e" stroke-width="3" stroke-linecap="round"/>
<rect x="216" y="303" width="64" height="12" rx="0" fill="#e3b23c" stroke="#1a1a1a" stroke-width="3"/>
<line x1="218" y1="199" x2="204" y2="305" stroke="#ffffff" stroke-width="20" stroke-linecap="round"/>
<line x1="218" y1="199" x2="204" y2="305" stroke="#1a1a1a" stroke-width="13.0" stroke-linecap="round"/>
<line x1="278" y1="199" x2="298" y2="287" stroke="#ffffff" stroke-width="20" stroke-linecap="round"/>
<line x1="278" y1="199" x2="298" y2="287" stroke="#1a1a1a" stroke-width="13.0" stroke-linecap="round"/>
<path d="M 201.0 184.0 L 201.0 128.0 Q 201.0 76.0 248.0 76.0 Q 295.0 76.0 295.0 128.0 L 295.0 184.0 L 282.0 184.0 L 282.0 130.0 Q 282.0 96.0 248.0 96.0 Q 214.0 96.0 214.0 130.0 L 214.0 184.0 Z" fill="#241c14" stroke="#1a1a1a" stroke-width="3"/>
<circle id="h1" data-fig="fa" class="skin" cx="248" cy="130" r="40" fill="#a86a43" stroke="#1a1a1a" stroke-width="6"/>
<path d="M 210.0 96.0 Q 248.0 82.0 286.0 96.0 Q 248.0 92.0 210.0 96.0 Z" fill="#241c14" stroke="#1a1a1a" stroke-width="3"/>
<ellipse cx="248" cy="94" rx="58" ry="12" fill="#1a1a1a" stroke="#1a1a1a" stroke-width="4"/>
<path d="M 222.0 94 Q 222.0 64 248.0 64 Q 274.0 64 274.0 94 Z" fill="#2b2b2b" stroke="#1a1a1a" stroke-width="4" stroke-linejoin="round"/>
<rect x="274" y="265" width="60" height="44" rx="2" fill="#fdf6e3" stroke="#1a1a1a" stroke-width="3"/>
<line x1="304" y1="265" x2="304" y2="309" stroke="#cbb994" stroke-width="2" stroke-linecap="round"/>
<path d="M 282.0 293.0 q 12 -22 26 -2 q 10 14 22 -2" fill="none" stroke="#2f9e4a" stroke-width="2.5" stroke-linejoin="round"/>
<path d="M 282.0 285.0 q 14 -14 30 0" fill="none" stroke="#2f9e4a" stroke-width="2" stroke-linejoin="round"/>
<polygon points="312.0,297.0 317.0,285.0 322.0,297.0" fill="#e0473c" stroke="#1a1a1a" stroke-width="1" stroke-linejoin="round"/>
<circle cx="198" cy="309" r="15" fill="#ffffff" stroke="#1a1a1a" stroke-width="3"/>
<polygon points="198.0,297.0 194.0,309.0 202.0,309.0" fill="#e0473c" stroke="#1a1a1a" stroke-width="1" stroke-linejoin="round"/>
<polygon points="198.0,321.0 194.0,309.0 202.0,309.0" fill="#cccccc" stroke="#1a1a1a" stroke-width="1" stroke-linejoin="round"/>
<circle cx="198" cy="309" r="2" fill="#1a1a1a" stroke="#1a1a1a" stroke-width="0"/>
<rect x="198" y="205" width="40" height="126" rx="10" fill="#3d8a6b" stroke="#1a1a1a" stroke-width="4"/>
<rect x="204" y="219" width="28" height="92" rx="6" fill="#2f6e52" stroke="#1a1a1a" stroke-width="3"/>
<line x1="202" y1="211" x2="248" y2="203" stroke="#2f6e52" stroke-width="5" stroke-linecap="round"/>
<circle cx="218" cy="199" r="7" fill="#3d8a6b" stroke="#1a1a1a" stroke-width="3"/>
<line x1="150" y1="455" x2="380" y2="455" stroke="#9aa7b5" stroke-width="5" stroke-linecap="round"/>
</svg>
