<svg xmlns="http://www.w3.org/2000/svg" viewBox="0 0 512 512" data-copyright="© 2026 Sensory App House"><!--SAH-COPYRIGHT © 2026 Sensory App House. All rights reserved.--><metadata id="sah-copyright"><rdf:RDF xmlns:rdf="http://www.w3.org/1999/02/22-rdf-syntax-ns#" xmlns:dc="http://purl.org/dc/elements/1.1/" xmlns:cc="http://creativecommons.org/ns#"><cc:Work rdf:about=""><dc:rights><cc:Agent><dc:title>© 2026 Sensory App House. All rights reserved.</dc:title></cc:Agent></dc:rights><dc:creator><cc:Agent><dc:title>Sensory App House (PiCom)</dc:title></cc:Agent></dc:creator><dc:date>2026</dc:date></cc:Work></rdf:RDF></metadata><g data-fit="1" transform="translate(256 256) scale(0.9019) translate(-251.50 -239.50)">
<rect x="24" y="455" width="464" height="24" rx="3" fill="#e3b783" stroke="#b98c50" stroke-width="2"/>
<line x1="24" y1="467" x2="488" y2="467" stroke="#b98c50" stroke-width="2" stroke-linecap="round"/>
<line x1="256" y1="305" x2="226" y2="455" stroke="#1a1a1a" stroke-width="16.0" stroke-linecap="round"/>
<line x1="256" y1="305" x2="280" y2="455" stroke="#1a1a1a" stroke-width="16.0" stroke-linecap="round"/>
<ellipse cx="232" cy="457" rx="15" ry="7" fill="#33373d"/>
<ellipse cx="286" cy="457" rx="15" ry="7" fill="#33373d"/>
<line x1="264" y1="207" x2="234" y2="233" stroke="#1a1a1a" stroke-width="13.0" stroke-linecap="round"/>
<polygon points="249,199 279,199 271,305 241,305" fill="#4a90d9" stroke="#1a1a1a" stroke-width="5" stroke-linejoin="round"/>
<path d="M 257.0 195.0 L 304.35483870967744 319.19354838709677 L 304.35483870967744 329.19354838709677 Q 260.0 339.19354838709677 217.66129032258064 329.19354838709677 L 217.66129032258064 319.19354838709677 Z" fill="#9e2b25" stroke="#1a1a1a" stroke-width="4" stroke-linejoin="round"/>
<line x1="242" y1="233" x2="278" y2="233" stroke="#1a1a1a" stroke-width="6" stroke-linecap="round"/>
<line x1="235" y1="254" x2="285" y2="254" stroke="#f2c14e" stroke-width="6" stroke-linecap="round"/>
<line x1="228" y1="276" x2="292" y2="276" stroke="#1a1a1a" stroke-width="6" stroke-linecap="round"/>
<line x1="221" y1="297" x2="299" y2="297" stroke="#f2c14e" stroke-width="6" stroke-linecap="round"/>
<line x1="215" y1="318" x2="305" y2="318" stroke="#1a1a1a" stroke-width="6" stroke-linecap="round"/>
<polygon points="254.0,199.0 266.0,199.0 265.0,213.0 255.0,213.0" fill="#a86a43" stroke="#1a1a1a" stroke-width="3" stroke-linejoin="round"/>
<polygon class="skin" points="258,203 270,203 276,177 264,177" fill="#a86a43" stroke="#1a1a1a" stroke-width="5" stroke-linejoin="round"/>
<path d="M 270.0 115.0 Q 285.96 115.0 292.8 134.0 Q 295.84 137.8 296.6 146.92 Q 295.08 151.48 297.36 153.0 Q 304.2 155.28 302.68 157.94 Q 298.12 158.32 294.32 160.22 Q 298.12 162.5 296.6 164.78 Q 295.08 166.68 293.18 168.2 Q 297.36 170.86 295.08 175.8 Q 291.28 178.84 280.64 179.22 Q 270.76 179.98 258.6 175.8 Q 239.6 165.92000000000002 235.04 151.1 Q 232.38 127.92 270.0 115.0 Z" fill="#241c14" stroke="#1a1a1a" stroke-width="6" stroke-linejoin="round"/>
<path class="skin" d="M 292.8 134.0 Q 295.84 137.8 296.6 146.92 Q 295.08 151.48 297.36 153.0 Q 304.2 155.28 302.68 157.94 Q 298.12 158.32 294.32 160.22 Q 298.12 162.5 296.6 164.78 Q 295.08 166.68 293.18 168.2 Q 297.36 170.86 295.08 175.8 Q 291.28 178.84 280.64 179.22 Q 270.76 179.98 258.6 175.8 Q 247.2 170.1 241.88 163.26 Q 262.4 155.28 279.12 150.72 Q 289.0 140.07999999999998 292.8 134.0 Z" fill="#a86a43" stroke="#1a1a1a" stroke-width="0" stroke-linejoin="round"/>
<line x1="289" y1="147" x2="294" y2="148" stroke="#1a1a1a" stroke-width="5" stroke-linecap="round"/>
<circle cx="289" cy="152" r="4" fill="#1a1a1a" stroke="#1a1a1a" stroke-width="0"/>
<path d="M 296.6 164.78 Q 293.56 166.3 290.9 164.78" fill="none" stroke="#1a1a1a" stroke-width="3.5" stroke-linejoin="round"/>
<line x1="264" y1="209" x2="308" y2="355" stroke="#1a1a1a" stroke-width="13.0" stroke-linecap="round"/>
<circle cx="308" cy="409" r="23" fill="#e08a2b" stroke="#1a1a1a" stroke-width="3"/>
<path d="M 285 409 h 46" fill="none" stroke="#1a1a1a" stroke-width="2" stroke-linejoin="round"/>
<path d="M 308 386 v 46" fill="none" stroke="#1a1a1a" stroke-width="2" stroke-linejoin="round"/>
<path d="M 287 397 Q 308 409 329 397" fill="none" stroke="#1a1a1a" stroke-width="2" stroke-linejoin="round"/>
<path d="M 293 443 q 15 13 30 0" fill="none" stroke="#9aa4b0" stroke-width="3" stroke-linejoin="round"/>
<path d="M 284 451 q 24 16 48 0" fill="none" stroke="#bcc3cc" stroke-width="2.5" stroke-linejoin="round"/>
<path d="M 242.22580645161287 146.0 Q 242.22580645161287 94.74193548387098 268.83870967741933 94.74193548387098 Q 297.4516129032258 97.16129032258065 297.4516129032258 150.0 Q 268.83870967741933 124.58064516129033 242.22580645161287 146.0 Z" fill="#7d2b6b" stroke="#1a1a1a" stroke-width="4" stroke-linejoin="round"/>
<circle cx="269" cy="95" r="5" fill="#f2c14e" stroke="#1a1a1a" stroke-width="2"/>
<line x1="244" y1="114" x2="295" y2="112" stroke="#f2c14e" stroke-width="4" stroke-linecap="round"/>
<polygon points="240.61290322580643,146.0 238.61290322580643,184.25806451612902 252.61290322580643,184.25806451612902 252.61290322580643,146.0" fill="#7d2b6b" stroke="#1a1a1a" stroke-width="3" stroke-linejoin="round"/>
<line x1="246" y1="184" x2="246" y2="194" stroke="#f2c14e" stroke-width="3" stroke-linecap="round"/>
</g></svg>
