<svg data-cover="arms:covered" xmlns="http://www.w3.org/2000/svg" viewBox="32.12 24.44 488.73 488.73"><metadata id="sah">{"v":1,"fig":[["h1","fa"],["h2","ma"],["h3","ma"]]}</metadata>
<rect x="348" y="344" width="140" height="64" rx="4" fill="#b07a3a" stroke="#1a1a1a" stroke-width="4"/>
<rect x="348" y="336" width="140" height="10" rx="3" fill="#c8983f" stroke="#1a1a1a" stroke-width="3"/>
<rect x="388" y="282" width="60" height="56" rx="5" fill="#5a6e80" stroke="#1a1a1a" stroke-width="4"/>
<rect x="396" y="290" width="44" height="22" rx="3" fill="#bfe0f0" stroke="#1a1a1a" stroke-width="2"/>
<path d="M 424 292 q -5 -5 -10 -1 q -5 4 -4 10 l 0 10" fill="none" stroke="#1f6f34" stroke-width="5" stroke-linejoin="round"/>
<line x1="409" y1="311" x2="426" y2="311" stroke="#1f6f34" stroke-width="5" stroke-linecap="round"/>
<line x1="410" y1="302" x2="421" y2="302" stroke="#1f6f34" stroke-width="4.0" stroke-linecap="round"/>
<rect x="392" y="320" width="52" height="14" rx="3" fill="#3a4654" stroke="#1a1a1a" stroke-width="2"/>
<rect x="454" y="310" width="26" height="40" rx="5" fill="#3a4654" stroke="#1a1a1a" stroke-width="3"/>
<rect x="458" y="314" width="18" height="14" rx="2" fill="#bfe0f0" stroke="#1a1a1a" stroke-width="1"/>
<path d="M 90.0 197.0 L 150.0 197.0 L 150.0 287.0 L 176.0 389.0 L 64.0 389.0 L 90.0 287.0 Z" fill="#d6529e" stroke="#1a1a1a" stroke-width="5" stroke-linejoin="round"/>
<line x1="102" y1="389" x2="96" y2="455" stroke="#1a1a1a" stroke-width="13.0" stroke-linecap="round"/>
<line x1="138" y1="389" x2="144" y2="455" stroke="#1a1a1a" stroke-width="13.0" stroke-linecap="round"/>
<ellipse cx="96" cy="457" rx="13" ry="7" fill="#33373d"/>
<ellipse cx="144" cy="457" rx="13" ry="7" fill="#33373d"/>
<line x1="90" y1="199" x2="70" y2="305" stroke="#1a1a1a" stroke-width="13.0" stroke-linecap="round"/>
<line x1="150" y1="199" x2="170" y2="305" stroke="#1a1a1a" stroke-width="13.0" stroke-linecap="round"/>
<line x1="120" y1="197" x2="120" y2="166" stroke="#1a1a1a" stroke-width="13.0" stroke-linecap="round"/>
<path d="M 73.0 184.0 L 73.0 128.0 Q 73.0 76.0 120 76.0 Q 167.0 76.0 167.0 128.0 L 167.0 184.0 L 154.0 184.0 L 154.0 130.0 Q 154.0 96.0 120 96.0 Q 86.0 96.0 86.0 130.0 L 86.0 184.0 Z" fill="#5a3a1f" stroke="#1a1a1a" stroke-width="3" stroke-linejoin="round"/>
<path d="M 88.0 197 L 152.0 197 L 150.0 305 L 90.0 305 Z" fill="#c0392b" stroke="#1a1a1a" stroke-width="4" stroke-linejoin="round"/>
<circle cx="120" cy="215" r="3" fill="#f2c14e" stroke="#1a1a1a" stroke-width="0"/>
<circle cx="108" cy="223" r="3" fill="#f2c14e" stroke="#1a1a1a" stroke-width="0"/>
<circle cx="132" cy="223" r="3" fill="#f2c14e" stroke="#1a1a1a" stroke-width="0"/>
<path d="M 104.0 199 L 120.0 219 L 136.0 199" fill="none" stroke="#f2c14e" stroke-width="5" stroke-linejoin="round"/>
<path d="M 90.0 305 L 150.0 305 L 170.0 367 L 70.0 367 Z" fill="#1f8f4e" stroke="#1a1a1a" stroke-width="4" stroke-linejoin="round"/>
<path d="M 72.0 363 L 168.0 363 L 174.0 455 L 66.0 455 Z" fill="#7d2b6b" stroke="#1a1a1a" stroke-width="4" stroke-linejoin="round"/>
<line x1="70" y1="349" x2="170" y2="349" stroke="#f2c14e" stroke-width="3" stroke-linecap="round"/>
<line x1="66" y1="441" x2="174" y2="441" stroke="#f2c14e" stroke-width="3" stroke-linecap="round"/>
<rect x="88" y="303" width="64" height="12" rx="0" fill="#e3b23c" stroke="#1a1a1a" stroke-width="3"/>
<line x1="90" y1="199" x2="70" y2="305" stroke="#ffffff" stroke-width="20" stroke-linecap="round"/>
<line x1="90" y1="199" x2="70" y2="305" stroke="#1a1a1a" stroke-width="13.0" stroke-linecap="round"/>
<line x1="150" y1="199" x2="170" y2="305" stroke="#ffffff" stroke-width="20" stroke-linecap="round"/>
<line x1="150" y1="199" x2="170" y2="305" stroke="#1a1a1a" stroke-width="13.0" stroke-linecap="round"/>
<line x1="180" y1="199" x2="160" y2="305" stroke="#ffffff" stroke-width="20" stroke-linecap="round"/>
<line x1="180" y1="199" x2="160" y2="305" stroke="#1a1a1a" stroke-width="13.0" stroke-linecap="round"/>
<path d="M 73.0 184.0 L 73.0 128.0 Q 73.0 76.0 120.0 76.0 Q 167.0 76.0 167.0 128.0 L 167.0 184.0 L 154.0 184.0 L 154.0 130.0 Q 154.0 96.0 120.0 96.0 Q 86.0 96.0 86.0 130.0 L 86.0 184.0 Z" fill="#241c14" stroke="#1a1a1a" stroke-width="3"/>
<circle id="h1" data-fig="fa" class="skin" cx="120" cy="130" r="40" fill="#a86a43" stroke="#1a1a1a" stroke-width="6"/>
<path d="M 82.0 96.0 Q 120.0 82.0 158.0 96.0 Q 120.0 92.0 82.0 96.0 Z" fill="#241c14" stroke="#1a1a1a" stroke-width="3"/>
<ellipse cx="120" cy="94" rx="58" ry="12" fill="#1a1a1a" stroke="#1a1a1a" stroke-width="4"/>
<path d="M 94.0 94 Q 94.0 64 120.0 64 Q 146.0 64 146.0 94 Z" fill="#2b2b2b" stroke="#1a1a1a" stroke-width="4" stroke-linejoin="round"/>
<circle cx="107" cy="127" r="4" fill="#1a1a1a" stroke="#1a1a1a" stroke-width="0"/>
<circle cx="133" cy="127" r="4" fill="#1a1a1a" stroke="#1a1a1a" stroke-width="0"/>
<path d="M 106.0 144.0 Q 120 160.0 134.0 144.0" fill="none" stroke="#1a1a1a" stroke-width="4" stroke-linejoin="round"/>
<line x1="195" y1="303" x2="186" y2="455" stroke="#39425c" stroke-width="16.0" stroke-linecap="round"/>
<line x1="225" y1="303" x2="234" y2="455" stroke="#39425c" stroke-width="16.0" stroke-linecap="round"/>
<ellipse cx="186" cy="457" rx="13" ry="7" fill="#33373d"/>
<ellipse cx="234" cy="457" rx="13" ry="7" fill="#33373d"/>
<polygon points="178,197 242,197 240,305 180,305" fill="#3d8a6b" stroke="#1a1a1a" stroke-width="5" stroke-linejoin="round"/>
<line x1="180" y1="199" x2="160" y2="305" stroke="#1a1a1a" stroke-width="13.0" stroke-linecap="round"/>
<line x1="240" y1="199" x2="260" y2="305" stroke="#1a1a1a" stroke-width="13.0" stroke-linecap="round"/>
<line x1="210" y1="197" x2="210" y2="166" stroke="#1a1a1a" stroke-width="13.0" stroke-linecap="round"/>
<path d="M 180.0 197 L 240.0 197 L 238.0 325 L 182.0 325 Z" fill="#6b5a3a" stroke="#1a1a1a" stroke-width="4" stroke-linejoin="round"/>
<path d="M 184.0 325 L 208.0 325 L 206.0 455 L 182.0 455 Z" fill="#4a4036" stroke="#1a1a1a" stroke-width="3" stroke-linejoin="round"/>
<path d="M 212.0 325 L 236.0 325 L 238.0 455 L 214.0 455 Z" fill="#4a4036" stroke="#1a1a1a" stroke-width="3" stroke-linejoin="round"/>
<path d="M 180.0 201 L 240.0 201 L 256.0 329 L 164.0 329 Z" fill="#9e2b25" stroke="#1a1a1a" stroke-width="4" stroke-linejoin="round"/>
<line x1="178" y1="221" x2="242" y2="221" stroke="#1a1a1a" stroke-width="5" stroke-linecap="round"/>
<line x1="175" y1="241" x2="245" y2="241" stroke="#1a1a1a" stroke-width="5" stroke-linecap="round"/>
<line x1="172" y1="261" x2="248" y2="261" stroke="#1a1a1a" stroke-width="5" stroke-linecap="round"/>
<line x1="167" y1="303" x2="253" y2="303" stroke="#1a1a1a" stroke-width="5" stroke-linecap="round"/>
<line x1="165" y1="323" x2="255" y2="323" stroke="#1a1a1a" stroke-width="5" stroke-linecap="round"/>
<line x1="176" y1="231" x2="244" y2="231" stroke="#f2c14e" stroke-width="5" stroke-linecap="round"/>
<line x1="174" y1="251" x2="246" y2="251" stroke="#f2c14e" stroke-width="5" stroke-linecap="round"/>
<line x1="168" y1="293" x2="252" y2="293" stroke="#f2c14e" stroke-width="5" stroke-linecap="round"/>
<line x1="166" y1="313" x2="254" y2="313" stroke="#f2c14e" stroke-width="5" stroke-linecap="round"/>
<path d="M 200.0 201 L 220.0 201 L 218.0 221 L 202.0 221 Z" fill="#a86a43" stroke="#1a1a1a" stroke-width="3" stroke-linejoin="round"/>
<line x1="150" y1="199" x2="170" y2="305" stroke="#ffffff" stroke-width="20" stroke-linecap="round"/>
<line x1="150" y1="199" x2="170" y2="305" stroke="#1a1a1a" stroke-width="13.0" stroke-linecap="round"/>
<line x1="180" y1="199" x2="160" y2="305" stroke="#ffffff" stroke-width="20" stroke-linecap="round"/>
<line x1="180" y1="199" x2="160" y2="305" stroke="#1a1a1a" stroke-width="13.0" stroke-linecap="round"/>
<line x1="240" y1="199" x2="260" y2="305" stroke="#ffffff" stroke-width="20" stroke-linecap="round"/>
<line x1="240" y1="199" x2="260" y2="305" stroke="#1a1a1a" stroke-width="13.0" stroke-linecap="round"/>
<line x1="270" y1="199" x2="250" y2="305" stroke="#ffffff" stroke-width="20" stroke-linecap="round"/>
<line x1="270" y1="199" x2="250" y2="305" stroke="#1a1a1a" stroke-width="13.0" stroke-linecap="round"/>
<circle id="h2" data-fig="ma" class="skin" cx="210" cy="130" r="40" fill="#a86a43" stroke="#1a1a1a" stroke-width="6"/>
<path d="M 170.0 130.0 Q 170.0 80.0 210 80.0 Q 250.0 80.0 250.0 130.0 Q 210 103.0 170.0 130.0 Z" fill="#241c14" stroke="#1a1a1a" stroke-width="3" stroke-linejoin="round"/>
<path d="M 168.0 126 Q 168.0 72 210.0 72 Q 252.0 72 252.0 126 Q 210.0 100 168.0 126 Z" fill="#7d2b6b" stroke="#1a1a1a" stroke-width="4" stroke-linejoin="round"/>
<line x1="167" y1="88" x2="167" y2="78" stroke="#f2c14e" stroke-width="2" stroke-linecap="round"/>
<line x1="210" y1="72" x2="210" y2="64" stroke="#f2c14e" stroke-width="2" stroke-linecap="round"/>
<line x1="172" y1="92" x2="248" y2="92" stroke="#f2c14e" stroke-width="5" stroke-linecap="round"/>
<line x1="172" y1="118" x2="248" y2="118" stroke="#f2c14e" stroke-width="5" stroke-linecap="round"/>
<path d="M 169.0 126 L 169.0 172 L 183.0 172 L 183.0 126 Z" fill="#7d2b6b" stroke="#1a1a1a" stroke-width="3" stroke-linejoin="round"/>
<path d="M 251.0 126 L 251.0 172 L 237.0 172 L 237.0 126 Z" fill="#7d2b6b" stroke="#1a1a1a" stroke-width="3" stroke-linejoin="round"/>
<line x1="176" y1="172" x2="176" y2="180" stroke="#f2c14e" stroke-width="3" stroke-linecap="round"/>
<line x1="244" y1="172" x2="244" y2="180" stroke="#f2c14e" stroke-width="3" stroke-linecap="round"/>
<circle cx="197" cy="127" r="4" fill="#1a1a1a" stroke="#1a1a1a" stroke-width="0"/>
<circle cx="223" cy="127" r="4" fill="#1a1a1a" stroke="#1a1a1a" stroke-width="0"/>
<path d="M 196.0 144.0 Q 210 160.0 224.0 144.0" fill="none" stroke="#1a1a1a" stroke-width="4" stroke-linejoin="round"/>
<line x1="285" y1="303" x2="276" y2="455" stroke="#39425c" stroke-width="16.0" stroke-linecap="round"/>
<line x1="315" y1="303" x2="324" y2="455" stroke="#39425c" stroke-width="16.0" stroke-linecap="round"/>
<ellipse cx="276" cy="457" rx="13" ry="7" fill="#33373d"/>
<ellipse cx="324" cy="457" rx="13" ry="7" fill="#33373d"/>
<polygon points="268,197 332,197 330,305 270,305" fill="#6b5a3a" stroke="#1a1a1a" stroke-width="5" stroke-linejoin="round"/>
<line x1="270" y1="199" x2="250" y2="305" stroke="#1a1a1a" stroke-width="13.0" stroke-linecap="round"/>
<line x1="330" y1="199" x2="350" y2="305" stroke="#1a1a1a" stroke-width="13.0" stroke-linecap="round"/>
<line x1="300" y1="197" x2="300" y2="166" stroke="#1a1a1a" stroke-width="13.0" stroke-linecap="round"/>
<path d="M 270.0 197 L 330.0 197 L 328.0 325 L 272.0 325 Z" fill="#6b5a3a" stroke="#1a1a1a" stroke-width="4" stroke-linejoin="round"/>
<path d="M 274.0 325 L 298.0 325 L 296.0 455 L 272.0 455 Z" fill="#4a4036" stroke="#1a1a1a" stroke-width="3" stroke-linejoin="round"/>
<path d="M 302.0 325 L 326.0 325 L 328.0 455 L 304.0 455 Z" fill="#4a4036" stroke="#1a1a1a" stroke-width="3" stroke-linejoin="round"/>
<path d="M 270.0 201 L 330.0 201 L 346.0 329 L 254.0 329 Z" fill="#9e2b25" stroke="#1a1a1a" stroke-width="4" stroke-linejoin="round"/>
<line x1="268" y1="221" x2="332" y2="221" stroke="#1a1a1a" stroke-width="5" stroke-linecap="round"/>
<line x1="265" y1="241" x2="335" y2="241" stroke="#1a1a1a" stroke-width="5" stroke-linecap="round"/>
<line x1="262" y1="261" x2="338" y2="261" stroke="#1a1a1a" stroke-width="5" stroke-linecap="round"/>
<line x1="257" y1="303" x2="343" y2="303" stroke="#1a1a1a" stroke-width="5" stroke-linecap="round"/>
<line x1="255" y1="323" x2="345" y2="323" stroke="#1a1a1a" stroke-width="5" stroke-linecap="round"/>
<line x1="266" y1="231" x2="334" y2="231" stroke="#f2c14e" stroke-width="5" stroke-linecap="round"/>
<line x1="264" y1="251" x2="336" y2="251" stroke="#f2c14e" stroke-width="5" stroke-linecap="round"/>
<line x1="258" y1="293" x2="342" y2="293" stroke="#f2c14e" stroke-width="5" stroke-linecap="round"/>
<line x1="256" y1="313" x2="344" y2="313" stroke="#f2c14e" stroke-width="5" stroke-linecap="round"/>
<path d="M 290.0 201 L 310.0 201 L 308.0 221 L 292.0 221 Z" fill="#a86a43" stroke="#1a1a1a" stroke-width="3" stroke-linejoin="round"/>
<line x1="240" y1="199" x2="260" y2="305" stroke="#ffffff" stroke-width="20" stroke-linecap="round"/>
<line x1="240" y1="199" x2="260" y2="305" stroke="#1a1a1a" stroke-width="13.0" stroke-linecap="round"/>
<line x1="270" y1="199" x2="250" y2="305" stroke="#ffffff" stroke-width="20" stroke-linecap="round"/>
<line x1="270" y1="199" x2="250" y2="305" stroke="#1a1a1a" stroke-width="13.0" stroke-linecap="round"/>
<line x1="330" y1="199" x2="350" y2="305" stroke="#ffffff" stroke-width="20" stroke-linecap="round"/>
<line x1="330" y1="199" x2="350" y2="305" stroke="#1a1a1a" stroke-width="13.0" stroke-linecap="round"/>
<circle id="h3" data-fig="ma" class="skin" cx="300" cy="130" r="40" fill="#a86a43" stroke="#1a1a1a" stroke-width="6"/>
<path d="M 260.0 130.0 Q 260.0 80.0 300 80.0 Q 340.0 80.0 340.0 130.0 Q 300 103.0 260.0 130.0 Z" fill="#241c14" stroke="#1a1a1a" stroke-width="3" stroke-linejoin="round"/>
<path d="M 258.0 126 Q 258.0 72 300.0 72 Q 342.0 72 342.0 126 Q 300.0 100 258.0 126 Z" fill="#7d2b6b" stroke="#1a1a1a" stroke-width="4" stroke-linejoin="round"/>
<line x1="257" y1="88" x2="257" y2="78" stroke="#f2c14e" stroke-width="2" stroke-linecap="round"/>
<line x1="300" y1="72" x2="300" y2="64" stroke="#f2c14e" stroke-width="2" stroke-linecap="round"/>
<line x1="262" y1="92" x2="338" y2="92" stroke="#f2c14e" stroke-width="5" stroke-linecap="round"/>
<line x1="262" y1="118" x2="338" y2="118" stroke="#f2c14e" stroke-width="5" stroke-linecap="round"/>
<path d="M 259.0 126 L 259.0 172 L 273.0 172 L 273.0 126 Z" fill="#7d2b6b" stroke="#1a1a1a" stroke-width="3" stroke-linejoin="round"/>
<path d="M 341.0 126 L 341.0 172 L 327.0 172 L 327.0 126 Z" fill="#7d2b6b" stroke="#1a1a1a" stroke-width="3" stroke-linejoin="round"/>
<line x1="266" y1="172" x2="266" y2="180" stroke="#f2c14e" stroke-width="3" stroke-linecap="round"/>
<line x1="334" y1="172" x2="334" y2="180" stroke="#f2c14e" stroke-width="3" stroke-linecap="round"/>
<circle cx="287" cy="127" r="4" fill="#1a1a1a" stroke="#1a1a1a" stroke-width="0"/>
<circle cx="313" cy="127" r="4" fill="#1a1a1a" stroke="#1a1a1a" stroke-width="0"/>
<path d="M 286.0 144.0 Q 300 160.0 314.0 144.0" fill="none" stroke="#1a1a1a" stroke-width="4" stroke-linejoin="round"/>
<path d="M 326 300 L 372 300 L 366 340 L 332 340 Z" fill="#b07a3a" stroke="#1a1a1a" stroke-width="4" stroke-linejoin="round"/>
<path d="M 326 300 q 23 -22 46 0" fill="none" stroke="#7a4a24" stroke-width="4" stroke-linejoin="round"/>
<path d="M 305.0 332.0 L 305.0 311.0 Q 305.0 304.0 316.0 304.0 Q 327 298.0 338.0 304.0 Q 349.0 304.0 349.0 311.0 L 349.0 332.0 Z" fill="#d9a441" stroke="#1a1a1a" stroke-width="4" stroke-linejoin="round"/>
<line x1="311" y1="320" x2="343" y2="320" stroke="#7a4a24" stroke-width="2" stroke-linecap="round"/>
<polygon points="352.0,331.0 352.0,296.5 367,285.0 382.0,296.5 382.0,331.0" fill="#eaf2f7" stroke="#1a1a1a" stroke-width="4" stroke-linejoin="round"/>
<rect x="360" y="284" width="14" height="8" rx="2" fill="#2b6fb0" stroke="#1a1a1a" stroke-width="2"/>
<line x1="357" y1="318" x2="377" y2="318" stroke="#2b6fb0" stroke-width="6" stroke-linecap="round"/>
<circle cx="347" cy="320" r="13" fill="#3fae5a" stroke="#1a1a1a" stroke-width="3"/>
<line x1="347" y1="307" x2="350" y2="298" stroke="#7a4a24" stroke-width="3" stroke-linecap="round"/>
<path d="M 350 300 q 9 -4 12 4 q -9 3 -12 -4" fill="none" stroke="#2f7a3a" stroke-width="2" stroke-linejoin="round"/>
<rect x="366" y="306" width="26" height="36" rx="3" fill="#e0473c" stroke="#1a1a1a" stroke-width="3"/>
<ellipse cx="379" cy="306" rx="13" ry="5" fill="#d7dde3" stroke="#1a1a1a" stroke-width="2"/>
<rect x="368" y="320" width="22" height="12" rx="0" fill="#ffffff" stroke="#1a1a1a" stroke-width="0"/>
<circle cx="355" cy="326" r="11" fill="#e0473c" stroke="#1a1a1a" stroke-width="3"/>
<line x1="355" y1="315" x2="358" y2="306" stroke="#7a4a24" stroke-width="3" stroke-linecap="round"/>
<path d="M 358 308 q 9 -4 12 4 q -9 3 -12 -4" fill="none" stroke="#2f7a3a" stroke-width="2" stroke-linejoin="round"/>
<line x1="96" y1="455" x2="470" y2="455" stroke="#5a6675" stroke-width="5" stroke-linecap="round"/>
<line x1="168" y1="432" x2="194" y2="432" stroke="#9aa7b5" stroke-width="5" stroke-linecap="round"/>
<polygon points="194,432 184,426 184,438" fill="#9aa7b5" stroke="#1a1a1a" stroke-width="2" stroke-linejoin="round"/>
<line x1="258" y1="432" x2="284" y2="432" stroke="#9aa7b5" stroke-width="5" stroke-linecap="round"/>
<polygon points="284,432 274,426 274,438" fill="#9aa7b5" stroke="#1a1a1a" stroke-width="2" stroke-linejoin="round"/>
</svg>
