<svg data-cover="arms:covered" xmlns="http://www.w3.org/2000/svg" viewBox="35.14 52.21 438.30 438.30"><metadata id="sah">{"v":1,"fig":[["h1","ma"]]}</metadata>
<line x1="135" y1="303" x2="126" y2="455" stroke="#39425c" stroke-width="16.0" stroke-linecap="round"/>
<line x1="165" y1="303" x2="174" y2="455" stroke="#39425c" stroke-width="16.0" stroke-linecap="round"/>
<ellipse cx="126" cy="457" rx="13" ry="7" fill="#33373d"/>
<ellipse cx="174" cy="457" rx="13" ry="7" fill="#33373d"/>
<polygon points="118,197 182,197 180,305 120,305" fill="#6b5a3a" stroke="#1a1a1a" stroke-width="5" stroke-linejoin="round"/>
<line x1="120" y1="199" x2="104" y2="305" stroke="#1a1a1a" stroke-width="13.0" stroke-linecap="round"/>
<line x1="180" y1="199" x2="228" y2="221" stroke="#1a1a1a" stroke-width="13.0" stroke-linecap="round"/>
<line x1="150" y1="197" x2="150" y2="166" stroke="#1a1a1a" stroke-width="13.0" stroke-linecap="round"/>
<path d="M 120.0 197 L 180.0 197 L 178.0 325 L 122.0 325 Z" fill="#6b5a3a" stroke="#1a1a1a" stroke-width="4" stroke-linejoin="round"/>
<path d="M 124.0 325 L 148.0 325 L 146.0 455 L 122.0 455 Z" fill="#4a4036" stroke="#1a1a1a" stroke-width="3" stroke-linejoin="round"/>
<path d="M 152.0 325 L 176.0 325 L 178.0 455 L 154.0 455 Z" fill="#4a4036" stroke="#1a1a1a" stroke-width="3" stroke-linejoin="round"/>
<path d="M 120.0 201 L 180.0 201 L 196.0 329 L 104.0 329 Z" fill="#9e2b25" stroke="#1a1a1a" stroke-width="4" stroke-linejoin="round"/>
<line x1="118" y1="221" x2="182" y2="221" stroke="#1a1a1a" stroke-width="5" stroke-linecap="round"/>
<line x1="115" y1="241" x2="185" y2="241" stroke="#1a1a1a" stroke-width="5" stroke-linecap="round"/>
<line x1="112" y1="261" x2="188" y2="261" stroke="#1a1a1a" stroke-width="5" stroke-linecap="round"/>
<line x1="107" y1="303" x2="193" y2="303" stroke="#1a1a1a" stroke-width="5" stroke-linecap="round"/>
<line x1="105" y1="323" x2="195" y2="323" stroke="#1a1a1a" stroke-width="5" stroke-linecap="round"/>
<line x1="116" y1="231" x2="184" y2="231" stroke="#f2c14e" stroke-width="5" stroke-linecap="round"/>
<line x1="114" y1="251" x2="186" y2="251" stroke="#f2c14e" stroke-width="5" stroke-linecap="round"/>
<line x1="108" y1="293" x2="192" y2="293" stroke="#f2c14e" stroke-width="5" stroke-linecap="round"/>
<line x1="106" y1="313" x2="194" y2="313" stroke="#f2c14e" stroke-width="5" stroke-linecap="round"/>
<path d="M 140.0 201 L 160.0 201 L 158.0 221 L 142.0 221 Z" fill="#a86a43" stroke="#1a1a1a" stroke-width="3" stroke-linejoin="round"/>
<line x1="120" y1="199" x2="104" y2="305" stroke="#ffffff" stroke-width="20" stroke-linecap="round"/>
<line x1="120" y1="199" x2="104" y2="305" stroke="#1a1a1a" stroke-width="13.0" stroke-linecap="round"/>
<line x1="180" y1="199" x2="228" y2="221" stroke="#ffffff" stroke-width="20" stroke-linecap="round"/>
<line x1="180" y1="199" x2="228" y2="221" stroke="#1a1a1a" stroke-width="13.0" stroke-linecap="round"/>
<circle id="h1" data-fig="ma" class="skin" cx="150" cy="130" r="40" fill="#a86a43" stroke="#1a1a1a" stroke-width="6"/>
<path d="M 110.0 130.0 Q 110.0 80.0 150 80.0 Q 190.0 80.0 190.0 130.0 Q 150 103.0 110.0 130.0 Z" fill="#241c14" stroke="#1a1a1a" stroke-width="3" stroke-linejoin="round"/>
<path d="M 108.0 126 Q 108.0 72 150.0 72 Q 192.0 72 192.0 126 Q 150.0 100 108.0 126 Z" fill="#7d2b6b" stroke="#1a1a1a" stroke-width="4" stroke-linejoin="round"/>
<line x1="107" y1="88" x2="107" y2="78" stroke="#f2c14e" stroke-width="2" stroke-linecap="round"/>
<line x1="150" y1="72" x2="150" y2="64" stroke="#f2c14e" stroke-width="2" stroke-linecap="round"/>
<line x1="112" y1="92" x2="188" y2="92" stroke="#f2c14e" stroke-width="5" stroke-linecap="round"/>
<line x1="112" y1="118" x2="188" y2="118" stroke="#f2c14e" stroke-width="5" stroke-linecap="round"/>
<path d="M 109.0 126 L 109.0 172 L 123.0 172 L 123.0 126 Z" fill="#7d2b6b" stroke="#1a1a1a" stroke-width="3" stroke-linejoin="round"/>
<path d="M 191.0 126 L 191.0 172 L 177.0 172 L 177.0 126 Z" fill="#7d2b6b" stroke="#1a1a1a" stroke-width="3" stroke-linejoin="round"/>
<line x1="116" y1="172" x2="116" y2="180" stroke="#f2c14e" stroke-width="3" stroke-linecap="round"/>
<line x1="184" y1="172" x2="184" y2="180" stroke="#f2c14e" stroke-width="3" stroke-linecap="round"/>
<circle cx="137" cy="127" r="4" fill="#1a1a1a" stroke="#1a1a1a" stroke-width="0"/>
<circle cx="163" cy="127" r="4" fill="#1a1a1a" stroke="#1a1a1a" stroke-width="0"/>
<path d="M 136.0 144.0 Q 150 160.0 164.0 144.0" fill="none" stroke="#1a1a1a" stroke-width="4" stroke-linejoin="round"/>
<rect x="288" y="190" width="120" height="30" rx="6" fill="#5a6e80" stroke="#1a1a1a" stroke-width="4"/>
<rect x="294" y="196" width="108" height="64" rx="4" fill="#bfe0f0" stroke="#1a1a1a" stroke-width="3"/>
<path d="M 338 215 q -6 -6 -14 -2 q -6 4 -4 14 l 0 13" fill="none" stroke="#1f6f34" stroke-width="6" stroke-linejoin="round"/>
<line x1="318" y1="240" x2="340" y2="240" stroke="#1f6f34" stroke-width="6" stroke-linecap="round"/>
<line x1="319" y1="228" x2="334" y2="228" stroke="#1f6f34" stroke-width="4.800000000000001" stroke-linecap="round"/>
<line x1="355" y1="222" x2="366" y2="236" stroke="#1a1a1a" stroke-width="16.0" stroke-linecap="round"/><line x1="366" y1="236" x2="389" y2="207" stroke="#1a1a1a" stroke-width="16.0" stroke-linecap="round"/><line x1="355" y1="222" x2="366" y2="236" stroke="#2f9e4a" stroke-width="10.5" stroke-linecap="round"/>
<line x1="366" y1="236" x2="389" y2="207" stroke="#2f9e4a" stroke-width="10.5" stroke-linecap="round"/>
<rect x="312" y="220" width="72" height="130" rx="6" fill="#7e8a96" stroke="#1a1a1a" stroke-width="4"/>
<rect x="320" y="256" width="56" height="22" rx="4" fill="#2b2b33" stroke="#1a1a1a" stroke-width="3"/>
<line x1="326" y1="267" x2="370" y2="267" stroke="#e0473c" stroke-width="3" stroke-linecap="round"/>
<rect x="298" y="306" width="100" height="12" rx="3" fill="#5a6675" stroke="#1a1a1a" stroke-width="3"/>
<circle cx="228" cy="221" r="12" fill="#a86a43" stroke="#1a1a1a" stroke-width="4"/>
<line x1="234" y1="221" x2="330" y2="261" stroke="#f1c9a5" stroke-width="6" stroke-linecap="round"/>
<rect x="335" y="244" width="26" height="34" rx="3" fill="#3fae5a" stroke="#1a1a1a" stroke-width="3"/>
<ellipse cx="348" cy="244" rx="13" ry="5" fill="#d7dde3" stroke="#1a1a1a" stroke-width="2"/>
<rect x="337" y="257" width="22" height="12" rx="0" fill="#ffffff" stroke="#1a1a1a" stroke-width="0"/>
<line x1="311" y1="253" x2="325" y2="253" stroke="#f0b400" stroke-width="3" stroke-linecap="round"/>
<line x1="318" y1="246" x2="318" y2="260" stroke="#f0b400" stroke-width="3" stroke-linecap="round"/>
<line x1="371" y1="273" x2="385" y2="273" stroke="#f0b400" stroke-width="3" stroke-linecap="round"/>
<line x1="378" y1="266" x2="378" y2="280" stroke="#f0b400" stroke-width="3" stroke-linecap="round"/>
<line x1="120" y1="455" x2="392" y2="455" stroke="#5a6675" stroke-width="5" stroke-linecap="round"/>
</svg>
