<svg data-cover="arms:covered" xmlns="http://www.w3.org/2000/svg" viewBox="0 0 512 512" data-copyright="© 2026 Sensory App House"><!--SAH-COPYRIGHT © 2026 Sensory App House. All rights reserved.--><metadata id="sah-copyright"><rdf:RDF xmlns:rdf="http://www.w3.org/1999/02/22-rdf-syntax-ns#" xmlns:dc="http://purl.org/dc/elements/1.1/" xmlns:cc="http://creativecommons.org/ns#"><cc:Work rdf:about=""><dc:rights><cc:Agent><dc:title>© 2026 Sensory App House. All rights reserved.</dc:title></cc:Agent></dc:rights><dc:creator><cc:Agent><dc:title>Sensory App House (PiCom)</dc:title></cc:Agent></dc:creator><dc:date>2026</dc:date></cc:Work></rdf:RDF></metadata><metadata id="sah">{"v":1,"fig":[["h1","ma"]]}</metadata><g data-fit="1" transform="translate(256 256) scale(1.0057) translate(-256.00 -240.00)">
<polygon points="234,16 278,16 396,330 116,330" fill="#fff6c8" stroke="#fff6c8" stroke-width="0" stroke-linejoin="round"/>
<path d="M 226.0 197.0 L 286.0 197.0 L 286.0 287.0 L 312.0 389.0 L 200.0 389.0 L 226.0 287.0 Z" fill="#7a5fb0" stroke="#1a1a1a" stroke-width="5" stroke-linejoin="round"/>
<line x1="238" y1="389" x2="232" y2="455" stroke="#1a1a1a" stroke-width="13.0" stroke-linecap="round"/>
<line x1="274" y1="389" x2="280" y2="455" stroke="#1a1a1a" stroke-width="13.0" stroke-linecap="round"/>
<ellipse cx="232" cy="457" rx="13" ry="7" fill="#33373d"/>
<ellipse cx="280" cy="457" rx="13" ry="7" fill="#33373d"/>
<line x1="226" y1="199" x2="152" y2="167" stroke="#1a1a1a" stroke-width="13.0" stroke-linecap="round"/>
<line x1="286" y1="199" x2="360" y2="167" stroke="#1a1a1a" stroke-width="13.0" stroke-linecap="round"/>
<line x1="256" y1="197" x2="256" y2="166" stroke="#1a1a1a" stroke-width="13.0" stroke-linecap="round"/>
<path d="M 209.0 184.0 L 209.0 128.0 Q 209.0 76.0 256 76.0 Q 303.0 76.0 303.0 128.0 L 303.0 184.0 L 290.0 184.0 L 290.0 130.0 Q 290.0 96.0 256 96.0 Q 222.0 96.0 222.0 130.0 L 222.0 184.0 Z" fill="#5a3a1f" stroke="#1a1a1a" stroke-width="3" stroke-linejoin="round"/>
<path d="M 226.0 197 L 286.0 197 L 284.0 325 L 228.0 325 Z" fill="#6b5a3a" stroke="#1a1a1a" stroke-width="4" stroke-linejoin="round"/>
<path d="M 230.0 325 L 254.0 325 L 252.0 455 L 228.0 455 Z" fill="#4a4036" stroke="#1a1a1a" stroke-width="3" stroke-linejoin="round"/>
<path d="M 258.0 325 L 282.0 325 L 284.0 455 L 260.0 455 Z" fill="#4a4036" stroke="#1a1a1a" stroke-width="3" stroke-linejoin="round"/>
<path d="M 226.0 201 L 286.0 201 L 302.0 329 L 210.0 329 Z" fill="#9e2b25" stroke="#1a1a1a" stroke-width="4" stroke-linejoin="round"/>
<line x1="224" y1="221" x2="288" y2="221" stroke="#1a1a1a" stroke-width="5" stroke-linecap="round"/>
<line x1="221" y1="241" x2="291" y2="241" stroke="#1a1a1a" stroke-width="5" stroke-linecap="round"/>
<line x1="218" y1="261" x2="294" y2="261" stroke="#1a1a1a" stroke-width="5" stroke-linecap="round"/>
<line x1="213" y1="303" x2="299" y2="303" stroke="#1a1a1a" stroke-width="5" stroke-linecap="round"/>
<line x1="211" y1="323" x2="301" y2="323" stroke="#1a1a1a" stroke-width="5" stroke-linecap="round"/>
<line x1="222" y1="231" x2="290" y2="231" stroke="#f2c14e" stroke-width="5" stroke-linecap="round"/>
<line x1="220" y1="251" x2="292" y2="251" stroke="#f2c14e" stroke-width="5" stroke-linecap="round"/>
<line x1="214" y1="293" x2="298" y2="293" stroke="#f2c14e" stroke-width="5" stroke-linecap="round"/>
<line x1="212" y1="313" x2="300" y2="313" stroke="#f2c14e" stroke-width="5" stroke-linecap="round"/>
<path d="M 246.0 201 L 266.0 201 L 264.0 221 L 248.0 221 Z" fill="#a86a43" stroke="#1a1a1a" stroke-width="3" stroke-linejoin="round"/>
<circle id="h1" data-fig="ma" class="skin" cx="256" cy="130" r="40" fill="#a86a43" stroke="#1a1a1a" stroke-width="6"/>
<path d="M 218.0 96.0 Q 256 82.0 294.0 96.0 Q 256 92.0 218.0 96.0 Z" fill="#241c14" stroke="#1a1a1a" stroke-width="3" stroke-linejoin="round"/>
<polygon points="256,40 264,59 285,61 269,74 274,94 256,84 238,94 243,74 227,61 248,59" fill="#f0c419" stroke="#1a1a1a" stroke-width="3" stroke-linejoin="round"/>
<line x1="141" y1="150" x2="159" y2="150" stroke="#f0c419" stroke-width="4" stroke-linecap="round"/>
<line x1="150" y1="141" x2="150" y2="159" stroke="#f0c419" stroke-width="4" stroke-linecap="round"/>
<line x1="144" y1="144" x2="156" y2="156" stroke="#f0c419" stroke-width="3" stroke-linecap="round"/>
<line x1="144" y1="156" x2="156" y2="144" stroke="#f0c419" stroke-width="3" stroke-linecap="round"/>
<line x1="353" y1="150" x2="371" y2="150" stroke="#f0c419" stroke-width="4" stroke-linecap="round"/>
<line x1="362" y1="141" x2="362" y2="159" stroke="#f0c419" stroke-width="4" stroke-linecap="round"/>
<line x1="356" y1="144" x2="368" y2="156" stroke="#f0c419" stroke-width="3" stroke-linecap="round"/>
<line x1="356" y1="156" x2="368" y2="144" stroke="#f0c419" stroke-width="3" stroke-linecap="round"/>
<rect x="70.0" y="424.0" width="372.0" height="34.0" rx="2" fill="#9a6a3a" stroke="#1a1a1a" stroke-width="4"/>
<line x1="114" y1="424" x2="104" y2="458" stroke="#7a4a24" stroke-width="2" stroke-linecap="round"/>
<line x1="166" y1="424" x2="156" y2="458" stroke="#7a4a24" stroke-width="2" stroke-linecap="round"/>
<line x1="218" y1="424" x2="208" y2="458" stroke="#7a4a24" stroke-width="2" stroke-linecap="round"/>
<line x1="270" y1="424" x2="260" y2="458" stroke="#7a4a24" stroke-width="2" stroke-linecap="round"/>
<line x1="322" y1="424" x2="312" y2="458" stroke="#7a4a24" stroke-width="2" stroke-linecap="round"/>
<line x1="374" y1="424" x2="364" y2="458" stroke="#7a4a24" stroke-width="2" stroke-linecap="round"/>
<line x1="426" y1="424" x2="416" y2="458" stroke="#7a4a24" stroke-width="2" stroke-linecap="round"/>
<line x1="70" y1="424" x2="442" y2="424" stroke="#c79356" stroke-width="3" stroke-linecap="round"/>
</g></svg>
