<svg data-cover="arms:covered" xmlns="http://www.w3.org/2000/svg" viewBox="0 0 512 512" data-copyright="© 2026 Sensory App House"><!--SAH-COPYRIGHT © 2026 Sensory App House. All rights reserved.--><metadata id="sah-copyright"><rdf:RDF xmlns:rdf="http://www.w3.org/1999/02/22-rdf-syntax-ns#" xmlns:dc="http://purl.org/dc/elements/1.1/" xmlns:cc="http://creativecommons.org/ns#"><cc:Work rdf:about=""><dc:rights><cc:Agent><dc:title>© 2026 Sensory App House. All rights reserved.</dc:title></cc:Agent></dc:rights><dc:creator><cc:Agent><dc:title>Sensory App House (PiCom)</dc:title></cc:Agent></dc:creator><dc:date>2026</dc:date></cc:Work></rdf:RDF></metadata><metadata id="sah">{"v":1,"fig":[["h1","ma"]]}</metadata><g data-fit="1" transform="translate(256 256) scale(1.1436) translate(-272.00 -271.00)">
<line x1="117" y1="303" x2="108" y2="455" stroke="#39425c" stroke-width="16.0" stroke-linecap="round"/>
<line x1="147" y1="303" x2="156" y2="455" stroke="#39425c" stroke-width="16.0" stroke-linecap="round"/>
<ellipse cx="108" cy="457" rx="13" ry="7" fill="#33373d"/>
<ellipse cx="156" cy="457" rx="13" ry="7" fill="#33373d"/>
<polygon points="100,197 164,197 162,305 102,305" fill="#6b5a3a" stroke="#1a1a1a" stroke-width="5" stroke-linejoin="round"/>
<line x1="102" y1="199" x2="82" y2="305" stroke="#1a1a1a" stroke-width="13.0" stroke-linecap="round"/>
<line x1="162" y1="199" x2="182" y2="305" stroke="#1a1a1a" stroke-width="13.0" stroke-linecap="round"/>
<line x1="132" y1="197" x2="132" y2="166" stroke="#1a1a1a" stroke-width="13.0" stroke-linecap="round"/>
<path d="M 102.0 197 L 162.0 197 L 160.0 325 L 104.0 325 Z" fill="#6b5a3a" stroke="#1a1a1a" stroke-width="4" stroke-linejoin="round"/>
<path d="M 106.0 325 L 130.0 325 L 128.0 455 L 104.0 455 Z" fill="#4a4036" stroke="#1a1a1a" stroke-width="3" stroke-linejoin="round"/>
<path d="M 134.0 325 L 158.0 325 L 160.0 455 L 136.0 455 Z" fill="#4a4036" stroke="#1a1a1a" stroke-width="3" stroke-linejoin="round"/>
<path d="M 102.0 201 L 162.0 201 L 178.0 329 L 86.0 329 Z" fill="#9e2b25" stroke="#1a1a1a" stroke-width="4" stroke-linejoin="round"/>
<line x1="100" y1="221" x2="164" y2="221" stroke="#1a1a1a" stroke-width="5" stroke-linecap="round"/>
<line x1="97" y1="241" x2="167" y2="241" stroke="#1a1a1a" stroke-width="5" stroke-linecap="round"/>
<line x1="94" y1="261" x2="170" y2="261" stroke="#1a1a1a" stroke-width="5" stroke-linecap="round"/>
<line x1="89" y1="303" x2="175" y2="303" stroke="#1a1a1a" stroke-width="5" stroke-linecap="round"/>
<line x1="87" y1="323" x2="177" y2="323" stroke="#1a1a1a" stroke-width="5" stroke-linecap="round"/>
<line x1="98" y1="231" x2="166" y2="231" stroke="#f2c14e" stroke-width="5" stroke-linecap="round"/>
<line x1="96" y1="251" x2="168" y2="251" stroke="#f2c14e" stroke-width="5" stroke-linecap="round"/>
<line x1="90" y1="293" x2="174" y2="293" stroke="#f2c14e" stroke-width="5" stroke-linecap="round"/>
<line x1="88" y1="313" x2="176" y2="313" stroke="#f2c14e" stroke-width="5" stroke-linecap="round"/>
<path d="M 122.0 201 L 142.0 201 L 140.0 221 L 124.0 221 Z" fill="#a86a43" stroke="#1a1a1a" stroke-width="3" stroke-linejoin="round"/>
<line x1="102" y1="199" x2="82" y2="305" stroke="#ffffff" stroke-width="20" stroke-linecap="round"/>
<line x1="102" y1="199" x2="82" y2="305" stroke="#1a1a1a" stroke-width="13.0" stroke-linecap="round"/>
<line x1="162" y1="199" x2="182" y2="305" stroke="#ffffff" stroke-width="20" stroke-linecap="round"/>
<line x1="162" y1="199" x2="182" y2="305" stroke="#1a1a1a" stroke-width="13.0" stroke-linecap="round"/>
<circle id="h1" data-fig="ma" class="skin" cx="132" cy="130" r="40" fill="#a86a43" stroke="#1a1a1a" stroke-width="6"/>
<path d="M 92.0 130.0 Q 92.0 80.0 132 80.0 Q 172.0 80.0 172.0 130.0 Q 132 103.0 92.0 130.0 Z" fill="#241c14" stroke="#1a1a1a" stroke-width="3" stroke-linejoin="round"/>
<path d="M 90.0 126 Q 90.0 72 132.0 72 Q 174.0 72 174.0 126 Q 132.0 100 90.0 126 Z" fill="#7d2b6b" stroke="#1a1a1a" stroke-width="4" stroke-linejoin="round"/>
<line x1="89" y1="88" x2="89" y2="78" stroke="#f2c14e" stroke-width="2" stroke-linecap="round"/>
<line x1="132" y1="72" x2="132" y2="64" stroke="#f2c14e" stroke-width="2" stroke-linecap="round"/>
<line x1="94" y1="92" x2="170" y2="92" stroke="#f2c14e" stroke-width="5" stroke-linecap="round"/>
<line x1="94" y1="118" x2="170" y2="118" stroke="#f2c14e" stroke-width="5" stroke-linecap="round"/>
<path d="M 91.0 126 L 91.0 172 L 105.0 172 L 105.0 126 Z" fill="#7d2b6b" stroke="#1a1a1a" stroke-width="3" stroke-linejoin="round"/>
<path d="M 173.0 126 L 173.0 172 L 159.0 172 L 159.0 126 Z" fill="#7d2b6b" stroke="#1a1a1a" stroke-width="3" stroke-linejoin="round"/>
<line x1="98" y1="172" x2="98" y2="180" stroke="#f2c14e" stroke-width="3" stroke-linecap="round"/>
<line x1="166" y1="172" x2="166" y2="180" stroke="#f2c14e" stroke-width="3" stroke-linecap="round"/>
<!-- a TO-DO list of tasks you have to do -->
<rect x="236" y="166" width="186" height="232" rx="14" fill="#ffffff" stroke="#1a1a1a" stroke-width="9"/>
<!-- task 1: ticked -->
<rect x="256" y="200" width="44" height="44" rx="8" fill="#ffffff" stroke="#1a1a1a" stroke-width="8"/>
<polyline points="263,224 277,240 296,200" fill="none" stroke="#3fae5a" stroke-width="12" stroke-linecap="round" stroke-linejoin="round"/>
<line x1="316" y1="222" x2="404" y2="222" stroke="#39425c" stroke-width="11" stroke-linecap="round"/>
<!-- task 2: unticked -->
<rect x="256" y="262" width="44" height="44" rx="8" fill="#ffffff" stroke="#1a1a1a" stroke-width="8"/>
<line x1="316" y1="284" x2="404" y2="284" stroke="#39425c" stroke-width="11" stroke-linecap="round"/>
<!-- task 3: unticked -->
<rect x="256" y="324" width="44" height="44" rx="8" fill="#ffffff" stroke="#1a1a1a" stroke-width="8"/>
<line x1="316" y1="346" x2="404" y2="346" stroke="#39425c" stroke-width="11" stroke-linecap="round"/>
<!-- pointing finger of obligation at the list -->
<g stroke="#1a1a1a" stroke-width="6" stroke-linejoin="round" fill="#f5d6b0">
<!-- fist -->
<rect x="430" y="278" width="42" height="58" rx="14"/>
<!-- pointing index finger toward the list -->
<path d="M 432 296 L 388 296 Q 378 296 378 306 Q 378 316 388 316 L 432 316 Z"/>
</g>
<!-- single orange ! emphasis -->
<line x1="446" y1="364" x2="446" y2="404" stroke="#1a1a1a" stroke-width="28" stroke-linecap="round"/><line x1="446" y1="364" x2="446" y2="404" stroke="#e08a1e" stroke-width="20" stroke-linecap="round"/>
<circle cx="446" cy="434" r="13" fill="#e08a1e" stroke="#1a1a1a" stroke-width="4"/>
</g></svg>
