<svg data-cover="arms:covered" xmlns="http://www.w3.org/2000/svg" viewBox="0 0 512 512" data-copyright="© 2026 Sensory App House"><!--SAH-COPYRIGHT © 2026 Sensory App House. All rights reserved.--><metadata id="sah-copyright"><rdf:RDF xmlns:rdf="http://www.w3.org/1999/02/22-rdf-syntax-ns#" xmlns:dc="http://purl.org/dc/elements/1.1/" xmlns:cc="http://creativecommons.org/ns#"><cc:Work rdf:about=""><dc:rights><cc:Agent><dc:title>© 2026 Sensory App House. All rights reserved.</dc:title></cc:Agent></dc:rights><dc:creator><cc:Agent><dc:title>Sensory App House (PiCom)</dc:title></cc:Agent></dc:creator><dc:date>2026</dc:date></cc:Work></rdf:RDF></metadata><metadata id="sah">{"v":1,"fig":[["h1","ma"],["h2","mc"],["h3","fa"],["h4","ma"]]}</metadata><g data-fit="1" transform="translate(256 256) scale(1.0310) translate(-257.50 -269.00)">
<line x1="81" y1="303" x2="72" y2="455" stroke="#39425c" stroke-width="16.0" stroke-linecap="round"/>
<line x1="111" y1="303" x2="120" y2="455" stroke="#39425c" stroke-width="16.0" stroke-linecap="round"/>
<ellipse cx="72" cy="457" rx="13" ry="7" fill="#33373d"/>
<ellipse cx="120" cy="457" rx="13" ry="7" fill="#33373d"/>
<polygon points="64,197 128,197 126,305 66,305" fill="#6b5a3a" stroke="#1a1a1a" stroke-width="5" stroke-linejoin="round"/>
<line x1="66" y1="199" x2="46" y2="305" stroke="#1a1a1a" stroke-width="13.0" stroke-linecap="round"/>
<line x1="126" y1="199" x2="146" y2="305" stroke="#1a1a1a" stroke-width="13.0" stroke-linecap="round"/>
<line x1="96" y1="197" x2="96" y2="166" stroke="#1a1a1a" stroke-width="13.0" stroke-linecap="round"/>
<path d="M 66.0 197 L 126.0 197 L 124.0 325 L 68.0 325 Z" fill="#6b5a3a" stroke="#1a1a1a" stroke-width="4" stroke-linejoin="round"/>
<path d="M 70.0 325 L 94.0 325 L 92.0 455 L 68.0 455 Z" fill="#4a4036" stroke="#1a1a1a" stroke-width="3" stroke-linejoin="round"/>
<path d="M 98.0 325 L 122.0 325 L 124.0 455 L 100.0 455 Z" fill="#4a4036" stroke="#1a1a1a" stroke-width="3" stroke-linejoin="round"/>
<path d="M 66.0 201 L 126.0 201 L 142.0 329 L 50.0 329 Z" fill="#9e2b25" stroke="#1a1a1a" stroke-width="4" stroke-linejoin="round"/>
<line x1="64" y1="221" x2="128" y2="221" stroke="#1a1a1a" stroke-width="5" stroke-linecap="round"/>
<line x1="61" y1="241" x2="131" y2="241" stroke="#1a1a1a" stroke-width="5" stroke-linecap="round"/>
<line x1="58" y1="261" x2="134" y2="261" stroke="#1a1a1a" stroke-width="5" stroke-linecap="round"/>
<line x1="53" y1="303" x2="139" y2="303" stroke="#1a1a1a" stroke-width="5" stroke-linecap="round"/>
<line x1="51" y1="323" x2="141" y2="323" stroke="#1a1a1a" stroke-width="5" stroke-linecap="round"/>
<line x1="62" y1="231" x2="130" y2="231" stroke="#f2c14e" stroke-width="5" stroke-linecap="round"/>
<line x1="60" y1="251" x2="132" y2="251" stroke="#f2c14e" stroke-width="5" stroke-linecap="round"/>
<line x1="54" y1="293" x2="138" y2="293" stroke="#f2c14e" stroke-width="5" stroke-linecap="round"/>
<line x1="52" y1="313" x2="140" y2="313" stroke="#f2c14e" stroke-width="5" stroke-linecap="round"/>
<path d="M 86.0 201 L 106.0 201 L 104.0 221 L 88.0 221 Z" fill="#a86a43" stroke="#1a1a1a" stroke-width="3" stroke-linejoin="round"/>
<line x1="66" y1="199" x2="46" y2="305" stroke="#ffffff" stroke-width="20" stroke-linecap="round"/>
<line x1="66" y1="199" x2="46" y2="305" stroke="#1a1a1a" stroke-width="13.0" stroke-linecap="round"/>
<line x1="126" y1="199" x2="146" y2="305" stroke="#ffffff" stroke-width="20" stroke-linecap="round"/>
<line x1="126" y1="199" x2="146" y2="305" stroke="#1a1a1a" stroke-width="13.0" stroke-linecap="round"/>
<circle id="h1" data-fig="ma" class="skin" cx="96" cy="130" r="40" fill="#a86a43" stroke="#1a1a1a" stroke-width="6"/>
<path d="M 56.0 130.0 Q 56.0 80.0 96 80.0 Q 136.0 80.0 136.0 130.0 Q 96 103.0 56.0 130.0 Z" fill="#2a2a2a" stroke="#1a1a1a" stroke-width="3" stroke-linejoin="round"/>
<line x1="185" y1="345" x2="179" y2="455" stroke="#1a1a1a" stroke-width="12.36" stroke-linecap="round"/>
<line x1="207" y1="345" x2="213" y2="455" stroke="#1a1a1a" stroke-width="12.36" stroke-linecap="round"/>
<ellipse cx="179" cy="457" rx="9" ry="5" fill="#33373d"/>
<ellipse cx="213" cy="457" rx="9" ry="5" fill="#33373d"/>
<polygon points="173,269 219,269 218,347 174,347" fill="#3d8a6b" stroke="#1a1a1a" stroke-width="5" stroke-linejoin="round"/>
<polygon points="174,347 218,347 218,376 174,376" fill="#e0473c" stroke="#1a1a1a" stroke-width="5" stroke-linejoin="round"/>
<line x1="174" y1="271" x2="160" y2="347" stroke="#1a1a1a" stroke-width="9.36" stroke-linecap="round"/>
<line x1="218" y1="271" x2="232" y2="347" stroke="#1a1a1a" stroke-width="9.36" stroke-linecap="round"/>
<line x1="196" y1="269" x2="196" y2="246" stroke="#1a1a1a" stroke-width="9.36" stroke-linecap="round"/>
<circle id="h2" data-fig="mc" class="skin" cx="196" cy="221" r="29" fill="#a86a43" stroke="#1a1a1a" stroke-width="6"/>
<path d="M 167.2 221.0 Q 167.2 182.2 196 182.2 Q 224.8 182.2 224.8 221.0 Q 196 205.2 167.2 221.0 Z" fill="#241c14" stroke="#1a1a1a" stroke-width="3" stroke-linejoin="round"/>
<path d="M 270.0 197.0 L 330.0 197.0 L 330.0 287.0 L 356.0 389.0 L 244.0 389.0 L 270.0 287.0 Z" fill="#cc5544" stroke="#1a1a1a" stroke-width="5" stroke-linejoin="round"/>
<line x1="282" y1="389" x2="276" y2="455" stroke="#1a1a1a" stroke-width="13.0" stroke-linecap="round"/>
<line x1="318" y1="389" x2="324" y2="455" stroke="#1a1a1a" stroke-width="13.0" stroke-linecap="round"/>
<ellipse cx="276" cy="457" rx="13" ry="7" fill="#33373d"/>
<ellipse cx="324" cy="457" rx="13" ry="7" fill="#33373d"/>
<line x1="270" y1="199" x2="250" y2="305" stroke="#1a1a1a" stroke-width="13.0" stroke-linecap="round"/>
<line x1="330" y1="199" x2="350" y2="305" stroke="#1a1a1a" stroke-width="13.0" stroke-linecap="round"/>
<line x1="300" y1="197" x2="300" y2="166" stroke="#1a1a1a" stroke-width="13.0" stroke-linecap="round"/>
<path d="M 253.0 184.0 L 253.0 128.0 Q 253.0 76.0 300 76.0 Q 347.0 76.0 347.0 128.0 L 347.0 184.0 L 334.0 184.0 L 334.0 130.0 Q 334.0 96.0 300 96.0 Q 266.0 96.0 266.0 130.0 L 266.0 184.0 Z" fill="#5a3a1f" stroke="#1a1a1a" stroke-width="3" stroke-linejoin="round"/>
<path d="M 268.0 197 L 332.0 197 L 330.0 305 L 270.0 305 Z" fill="#c0392b" stroke="#1a1a1a" stroke-width="4" stroke-linejoin="round"/>
<circle cx="300" cy="215" r="3" fill="#f2c14e" stroke="#1a1a1a" stroke-width="0"/>
<circle cx="288" cy="223" r="3" fill="#f2c14e" stroke="#1a1a1a" stroke-width="0"/>
<circle cx="312" cy="223" r="3" fill="#f2c14e" stroke="#1a1a1a" stroke-width="0"/>
<path d="M 284.0 199 L 300.0 219 L 316.0 199" fill="none" stroke="#f2c14e" stroke-width="5" stroke-linejoin="round"/>
<path d="M 270.0 305 L 330.0 305 L 350.0 367 L 250.0 367 Z" fill="#1f8f4e" stroke="#1a1a1a" stroke-width="4" stroke-linejoin="round"/>
<path d="M 252.0 363 L 348.0 363 L 354.0 455 L 246.0 455 Z" fill="#7d2b6b" stroke="#1a1a1a" stroke-width="4" stroke-linejoin="round"/>
<line x1="250" y1="349" x2="350" y2="349" stroke="#f2c14e" stroke-width="3" stroke-linecap="round"/>
<line x1="246" y1="441" x2="354" y2="441" stroke="#f2c14e" stroke-width="3" stroke-linecap="round"/>
<rect x="268" y="303" width="64" height="12" rx="0" fill="#e3b23c" stroke="#1a1a1a" stroke-width="3"/>
<line x1="270" y1="199" x2="250" y2="305" stroke="#ffffff" stroke-width="20" stroke-linecap="round"/>
<line x1="270" y1="199" x2="250" y2="305" stroke="#1a1a1a" stroke-width="13.0" stroke-linecap="round"/>
<line x1="330" y1="199" x2="350" y2="305" stroke="#ffffff" stroke-width="20" stroke-linecap="round"/>
<line x1="330" y1="199" x2="350" y2="305" stroke="#1a1a1a" stroke-width="13.0" stroke-linecap="round"/>
<path d="M 253.0 184.0 L 253.0 128.0 Q 253.0 76.0 300.0 76.0 Q 347.0 76.0 347.0 128.0 L 347.0 184.0 L 334.0 184.0 L 334.0 130.0 Q 334.0 96.0 300.0 96.0 Q 266.0 96.0 266.0 130.0 L 266.0 184.0 Z" fill="#241c14" stroke="#1a1a1a" stroke-width="3"/>
<circle id="h3" data-fig="fa" class="skin" cx="300" cy="130" r="40" fill="#a86a43" stroke="#1a1a1a" stroke-width="6"/>
<path d="M 262.0 96.0 Q 300.0 82.0 338.0 96.0 Q 300.0 92.0 262.0 96.0 Z" fill="#241c14" stroke="#1a1a1a" stroke-width="3"/>
<ellipse cx="300" cy="94" rx="58" ry="12" fill="#1a1a1a" stroke="#1a1a1a" stroke-width="4"/>
<path d="M 274.0 94 Q 274.0 64 300.0 64 Q 326.0 64 326.0 94 Z" fill="#2b2b2b" stroke="#1a1a1a" stroke-width="4" stroke-linejoin="round"/>
<line x1="397" y1="303" x2="388" y2="455" stroke="#39425c" stroke-width="16.0" stroke-linecap="round"/>
<line x1="427" y1="303" x2="436" y2="455" stroke="#39425c" stroke-width="16.0" stroke-linecap="round"/>
<ellipse cx="388" cy="457" rx="13" ry="7" fill="#33373d"/>
<ellipse cx="436" cy="457" rx="13" ry="7" fill="#33373d"/>
<polygon points="380,197 444,197 442,305 382,305" fill="#8e44ad" stroke="#1a1a1a" stroke-width="5" stroke-linejoin="round"/>
<line x1="382" y1="199" x2="362" y2="305" stroke="#1a1a1a" stroke-width="13.0" stroke-linecap="round"/>
<line x1="442" y1="199" x2="462" y2="305" stroke="#1a1a1a" stroke-width="13.0" stroke-linecap="round"/>
<line x1="412" y1="197" x2="412" y2="166" stroke="#1a1a1a" stroke-width="13.0" stroke-linecap="round"/>
<path d="M 382.0 197 L 442.0 197 L 440.0 325 L 384.0 325 Z" fill="#6b5a3a" stroke="#1a1a1a" stroke-width="4" stroke-linejoin="round"/>
<path d="M 386.0 325 L 410.0 325 L 408.0 455 L 384.0 455 Z" fill="#4a4036" stroke="#1a1a1a" stroke-width="3" stroke-linejoin="round"/>
<path d="M 414.0 325 L 438.0 325 L 440.0 455 L 416.0 455 Z" fill="#4a4036" stroke="#1a1a1a" stroke-width="3" stroke-linejoin="round"/>
<path d="M 382.0 201 L 442.0 201 L 458.0 329 L 366.0 329 Z" fill="#9e2b25" stroke="#1a1a1a" stroke-width="4" stroke-linejoin="round"/>
<line x1="380" y1="221" x2="444" y2="221" stroke="#1a1a1a" stroke-width="5" stroke-linecap="round"/>
<line x1="377" y1="241" x2="447" y2="241" stroke="#1a1a1a" stroke-width="5" stroke-linecap="round"/>
<line x1="374" y1="261" x2="450" y2="261" stroke="#1a1a1a" stroke-width="5" stroke-linecap="round"/>
<line x1="369" y1="303" x2="455" y2="303" stroke="#1a1a1a" stroke-width="5" stroke-linecap="round"/>
<line x1="367" y1="323" x2="457" y2="323" stroke="#1a1a1a" stroke-width="5" stroke-linecap="round"/>
<line x1="378" y1="231" x2="446" y2="231" stroke="#f2c14e" stroke-width="5" stroke-linecap="round"/>
<line x1="376" y1="251" x2="448" y2="251" stroke="#f2c14e" stroke-width="5" stroke-linecap="round"/>
<line x1="370" y1="293" x2="454" y2="293" stroke="#f2c14e" stroke-width="5" stroke-linecap="round"/>
<line x1="368" y1="313" x2="456" y2="313" stroke="#f2c14e" stroke-width="5" stroke-linecap="round"/>
<path d="M 402.0 201 L 422.0 201 L 420.0 221 L 404.0 221 Z" fill="#a86a43" stroke="#1a1a1a" stroke-width="3" stroke-linejoin="round"/>
<line x1="382" y1="199" x2="362" y2="305" stroke="#ffffff" stroke-width="20" stroke-linecap="round"/>
<line x1="382" y1="199" x2="362" y2="305" stroke="#1a1a1a" stroke-width="13.0" stroke-linecap="round"/>
<line x1="442" y1="199" x2="462" y2="305" stroke="#ffffff" stroke-width="20" stroke-linecap="round"/>
<line x1="442" y1="199" x2="462" y2="305" stroke="#1a1a1a" stroke-width="13.0" stroke-linecap="round"/>
<circle id="h4" data-fig="ma" class="skin" cx="412" cy="130" r="40" fill="#a86a43" stroke="#1a1a1a" stroke-width="6"/>
<path d="M 372.0 130.0 Q 372.0 80.0 412 80.0 Q 452.0 80.0 452.0 130.0 Q 412 103.0 372.0 130.0 Z" fill="#241c14" stroke="#1a1a1a" stroke-width="3" stroke-linejoin="round"/>
<path d="M 370.0 126 Q 370.0 72 412.0 72 Q 454.0 72 454.0 126 Q 412.0 100 370.0 126 Z" fill="#7d2b6b" stroke="#1a1a1a" stroke-width="4" stroke-linejoin="round"/>
<line x1="369" y1="88" x2="369" y2="78" stroke="#f2c14e" stroke-width="2" stroke-linecap="round"/>
<line x1="412" y1="72" x2="412" y2="64" stroke="#f2c14e" stroke-width="2" stroke-linecap="round"/>
<line x1="374" y1="92" x2="450" y2="92" stroke="#f2c14e" stroke-width="5" stroke-linecap="round"/>
<line x1="374" y1="118" x2="450" y2="118" stroke="#f2c14e" stroke-width="5" stroke-linecap="round"/>
<path d="M 371.0 126 L 371.0 172 L 385.0 172 L 385.0 126 Z" fill="#7d2b6b" stroke="#1a1a1a" stroke-width="3" stroke-linejoin="round"/>
<path d="M 453.0 126 L 453.0 172 L 439.0 172 L 439.0 126 Z" fill="#7d2b6b" stroke="#1a1a1a" stroke-width="3" stroke-linejoin="round"/>
<line x1="378" y1="172" x2="378" y2="180" stroke="#f2c14e" stroke-width="3" stroke-linecap="round"/>
<line x1="446" y1="172" x2="446" y2="180" stroke="#f2c14e" stroke-width="3" stroke-linecap="round"/>
<circle cx="397" cy="132" r="9" fill="none" stroke="#333" stroke-width="3"/>
<circle cx="427" cy="132" r="9" fill="none" stroke="#333" stroke-width="3"/>
<line x1="406" y1="132" x2="418" y2="132" stroke="#333" stroke-width="3" stroke-linecap="round"/>
<path d="M 464.0 217.0 L 472.0 455" fill="none" stroke="#9a6a3a" stroke-width="7" stroke-linejoin="round"/>
</g></svg>
